<svg fill="none" height="32" viewBox="0 0 32 32" width="32" xmlns="http://www.w3.org/2000/svg">
    <path
        d="M24.0654 18.6836C22.2685 20.1803 20.0039 20.9998 17.6654 20.9998C15.3268 20.9998 13.0622 20.1803 11.2654 18.6836C9.20393 19.5986 7.45191 21.0916 6.2214 22.9817C4.99088 24.8719 4.33461 27.0782 4.33203 29.3336C4.33203 29.7756 4.50763 30.1995 4.82019 30.5121C5.13275 30.8247 5.55667 31.0002 5.9987 31.0002H29.332C29.7741 31.0002 30.198 30.8247 30.5105 30.5121C30.8231 30.1995 30.9987 29.7756 30.9987 29.3336C30.9961 27.0782 30.3399 24.8719 29.1093 22.9817C27.8788 21.0916 26.1268 19.5986 24.0654 18.6836Z"
        fill="#E5447E" />
    <path d="M7.66667 4.33333H1M4.33333 1V7.66666" stroke="black" stroke-linecap="round"
        stroke-linejoin="round" stroke-width="2" />
    <path
        d="M14.3333 1.58337C15.4015 1.19444 16.5299 0.996972 17.6667 1.00004C19.5005 0.997941 21.2995 1.50014 22.8671 2.45171C24.4347 3.40328 25.7105 4.76758 26.5549 6.39541C27.3993 8.02324 27.7798 9.85191 27.6548 11.6815C27.5299 13.511 26.9042 15.2709 25.8464 16.7688C24.7885 18.2667 23.339 19.4449 21.6566 20.1745C19.9742 20.9041 18.1236 21.157 16.3071 20.9056C14.4906 20.6542 12.7782 19.9081 11.3572 18.749C9.93618 17.5898 8.86127 16.0623 8.25 14.3334"
        stroke="black" stroke-linecap="round" stroke-linejoin="round" stroke-width="2" />
    <path
        d="M11.132 18.7344C9.10328 19.6655 7.38424 21.1592 6.17893 23.038C4.97362 24.9169 4.33263 27.1021 4.33203 29.3344C4.33203 29.7764 4.50763 30.2003 4.82019 30.5129C5.13275 30.8254 5.55667 31.001 5.9987 31.001H29.332C29.7741 31.001 30.198 30.8254 30.5105 30.5129C30.8231 30.2003 30.9987 29.7764 30.9987 29.3344C30.9968 27.1598 30.3872 25.0291 29.2386 23.1826C28.0901 21.3361 26.4484 19.8474 24.4987 18.8844"
        stroke="black" stroke-linecap="round" stroke-linejoin="round" stroke-width="2" />
</svg>
