<svg fill="none" height="64" viewBox="0 0 64 64" width="64" xmlns="http://www.w3.org/2000/svg">
    <mask style="mask-type:luminance" height="64" id="mask0_12691_33541" maskUnits="userSpaceOnUse" width="64"
        x="0" y="0">
        <circle cx="32" cy="32" fill="white" r="32" />
    </mask>
    <g mask="url(#mask0_12691_33541)">
        <g filter="url(#filter0_b_12691_33541)">
            <circle cx="32" cy="32" fill="url(#paint0_linear_12691_33541)" r="32" />
            <circle cx="32" cy="32" r="31.5" stroke="white" stroke-opacity="0.3" />
        </g>
        <path
            d="M12.5898 57.2247V71.6474H24.1911V53.1368C24.1911 51.061 22.509 49.3789 20.4332 49.3789C16.1008 49.3814 12.5898 52.8923 12.5898 57.2247Z"
            fill="url(#paint1_linear_12691_33541)" />
        <path
            d="M47.5954 83.6461H17.5006C16.5226 83.6461 15.7305 82.854 15.7305 81.876V59.1942C15.7305 51.3998 22.0482 45.082 29.8427 45.082H35.2558C43.0503 45.082 49.368 51.3998 49.368 59.1942V81.876C49.3656 82.854 48.5734 83.6461 47.5954 83.6461Z"
            fill="url(#paint2_linear_12691_33541)" />
        <path
            d="M32.1885 69.9204L30.6995 71.182C30.5113 71.3409 30.235 71.3384 30.0492 71.1746L28.6311 69.9179C28.526 69.825 28.4648 69.6881 28.4648 69.5463V54.082H32.3621V69.5414C32.3645 69.6881 32.2985 69.8275 32.1885 69.9204Z"
            fill="#FF0000" />
        <path
            d="M28.4688 56.2611C28.503 56.3003 28.5348 56.3394 28.5714 56.3761C29.5616 57.3663 31.168 57.3663 32.1582 56.3761C32.234 56.3003 32.3024 56.2196 32.366 56.1389V54.293H28.4688V56.2611H28.4688Z"
            fill="#E6003B" />
        <path
            d="M32.1575 51.5317C33.1477 52.5219 33.1477 54.1283 32.1575 55.1185C31.1673 56.1087 29.561 56.1087 28.5708 55.1185C27.5806 54.1283 27.5806 52.5219 28.5708 51.5317C29.561 50.5415 31.1673 50.5415 32.1575 51.5317Z"
            fill="#FF0000" />
        <path
            d="M27.4732 54.8204L30.4805 51.4831L33.3142 55.2948C35.8423 54.3803 37.7347 52.0625 37.9669 49.2093C38.2823 45.3145 35.3802 41.8989 31.483 41.586C27.5882 41.2706 24.1726 44.1727 23.8596 48.0699C23.6273 50.9183 25.1237 53.5124 27.4732 54.8204Z"
            fill="#B8DDFF" />
        <path
            d="M30.7345 51.6918C27.3238 51.6918 24.5586 48.9266 24.5586 45.5159V41.3791C24.5586 37.9684 27.3238 35.2031 30.7345 35.2031C34.1452 35.2031 36.9105 37.9684 36.9105 41.3791V45.5159C36.9105 48.9266 34.1452 51.6918 30.7345 51.6918Z"
            fill="#FF948E" />
        <path
            d="M33.5676 44.746H29.6336C21.1155 44.746 14.2109 37.8415 14.2109 29.3233V25.0667C14.2109 16.2135 21.3893 9.03516 30.2424 9.03516H33.3891C42.0051 9.03516 48.9903 16.0204 48.9903 24.6363V29.3233C48.9927 37.8415 42.0857 44.746 33.5676 44.746Z"
            fill="url(#paint3_linear_12691_33541)" />
        <path
            d="M45.0085 34.6403C46.5415 34.6403 47.7835 33.3983 47.7835 31.8653V31.5719C47.7835 30.0389 46.5415 28.7969 45.0085 28.7969C44.5611 28.7969 44.1992 29.1587 44.1992 29.6062V33.8335C44.1992 34.2784 44.5611 34.6403 45.0085 34.6403Z"
            fill="url(#paint4_linear_12691_33541)" />
        <path
            d="M16.1578 28.7695C14.6248 28.7695 13.3828 30.0116 13.3828 31.5445V31.8379C13.3828 33.3709 14.6248 34.6129 16.1578 34.6129C16.6052 34.6129 16.9671 34.2511 16.9671 33.8037V29.5764C16.9671 29.1314 16.6052 28.7695 16.1578 28.7695Z"
            fill="url(#paint5_linear_12691_33541)" />
        <path
            d="M30.7533 48.7045C38.7091 48.7045 45.1589 42.2547 45.1589 34.2989V29.1009C45.1589 21.1451 38.7091 14.6953 30.7533 14.6953C22.7974 14.6953 16.3477 21.1451 16.3477 29.1009V34.2989C16.3477 42.2547 22.7974 48.7045 30.7533 48.7045Z"
            fill="url(#paint6_linear_12691_33541)" />
        <path
            d="M37.3739 14.5596L22.8851 14.5547C21.2495 14.5547 19.9219 15.8798 19.9219 17.5155C19.9219 19.1512 21.247 20.4763 22.8827 20.4763H40.4252C40.9484 20.4763 41.3714 20.8993 41.3714 21.4225V24.0949C41.3714 26.7892 43.5571 28.975 46.2515 28.975C46.7747 28.975 47.1977 28.552 47.1977 28.0288V24.3907C47.1977 18.9654 42.8017 14.5645 37.3739 14.5596Z"
            fill="url(#paint7_linear_12691_33541)" />
        <path
            d="M52.0856 57.2247V71.6475H40.4844V53.1368C40.4844 51.061 42.1665 49.3789 44.2423 49.3789C48.5747 49.3814 52.0856 52.8923 52.0856 57.2247Z"
            fill="url(#paint8_linear_12691_33541)" />
        <path
            d="M29.7259 35.0587C30.7919 35.0587 31.655 34.1957 31.655 33.1297V31.8314C31.655 30.7654 30.7919 29.9023 29.7259 29.9023C28.6599 29.9023 27.7969 30.7654 27.7969 31.8314V33.1297C27.7944 34.1957 28.6599 35.0587 29.7259 35.0587Z"
            fill="url(#paint9_linear_12691_33541)" />
        <path
            d="M24.7849 36.4609C24.6113 36.4609 24.4768 36.6076 24.4891 36.7812C24.6529 39.5147 26.9218 41.6784 29.6968 41.6784C32.4718 41.6784 34.7383 39.5147 34.9045 36.7812C34.9143 36.6101 34.7798 36.4609 34.6087 36.4609H24.7849V36.4609Z"
            fill="#880004" />
        <path
            d="M32.7757 39.4062H29.7293C28.6021 39.4062 27.6339 40.0737 27.1914 41.0346C27.9347 41.4429 28.788 41.6752 29.695 41.6752C31.3869 41.6752 32.8906 40.8683 33.8441 39.619C33.5165 39.482 33.1546 39.4062 32.7757 39.4062Z"
            fill="#FF0057" />
        <path
            d="M26.5139 38.0819H34.6556C34.7901 37.6687 34.8757 37.2335 34.9025 36.7812C34.9123 36.6101 34.7779 36.4609 34.6067 36.4609H25.6484V37.2164C25.6509 37.6932 26.0372 38.0819 26.5139 38.0819Z"
            fill="white" />
        <path
            d="M24.4797 32.0749C23.8538 32.0749 23.3477 31.5688 23.3477 30.9429V30.0383C23.3477 29.4124 23.8538 28.9062 24.4797 28.9062C25.1056 28.9062 25.6117 29.4124 25.6117 30.0383V30.9429C25.6117 31.5688 25.1056 32.0749 24.4797 32.0749Z"
            fill="url(#paint10_linear_12691_33541)" />
        <path
            d="M35.4211 32.0749C34.7952 32.0749 34.2891 31.5688 34.2891 30.9429V30.0383C34.2891 29.4124 34.7952 28.9062 35.4211 28.9062C36.047 28.9062 36.5531 29.4124 36.5531 30.0383V30.9429C36.5531 31.5688 36.047 32.0749 35.4211 32.0749Z"
            fill="url(#paint11_linear_12691_33541)" />
        <path
            d="M22.1526 26.6208C21.9912 26.6208 21.8274 26.5694 21.688 26.4618C21.3604 26.2051 21.3017 25.7332 21.5584 25.4032C22.1697 24.6208 23.1697 24.1562 24.2381 24.1562C24.8738 24.1562 25.4899 24.3201 26.0205 24.6281C26.3799 24.8384 26.5021 25.298 26.2918 25.6574C26.0816 26.0169 25.6219 26.1391 25.2625 25.9288C24.9618 25.7552 24.6073 25.6623 24.2381 25.6623C23.6317 25.6623 23.0743 25.9117 22.7467 26.3298C22.5975 26.5205 22.375 26.6208 22.1526 26.6208Z"
            fill="#8F0000" />
        <path
            d="M37.3008 26.6208C37.4622 26.6208 37.626 26.5694 37.7654 26.4618C38.093 26.2051 38.1517 25.7332 37.895 25.4032C37.2837 24.6208 36.2837 24.1562 35.2153 24.1562C34.5796 24.1562 33.9635 24.3201 33.4329 24.6281C33.0735 24.8384 32.9513 25.298 33.1616 25.6574C33.3718 26.0169 33.8315 26.1391 34.1909 25.9288C34.4916 25.7552 34.8461 25.6623 35.2153 25.6623C35.8217 25.6623 36.3791 25.9117 36.7067 26.3298C36.8534 26.5205 37.0759 26.6208 37.3008 26.6208Z"
            fill="#8F0000" />
    </g>
    <defs>
        <filter color-interpolation-filters="sRGB" filterUnits="userSpaceOnUse" height="88" id="filter0_b_12691_33541" width="88"
            x="-12" y="-12">
            <feFlood flood-opacity="0" result="BackgroundImageFix" />
            <feGaussianBlur in="BackgroundImageFix" stdDeviation="6" />
            <feComposite in2="SourceAlpha" operator="in"
                result="effect1_backgroundBlur_12691_33541" />
            <feBlend in="SourceGraphic" in2="effect1_backgroundBlur_12691_33541" mode="normal"
                result="shape" />
        </filter>
        <linearGradient gradientUnits="userSpaceOnUse" id="paint0_linear_12691_33541" x1="32" x2="32" y1="0"
            y2="64">
            <stop stop-color="#2CA9BC" stop-opacity="0.6" />
            <stop offset="1" stop-color="#2CA9BC" stop-opacity="0.9" />
        </linearGradient>
        <linearGradient gradientUnits="userSpaceOnUse" id="paint1_linear_12691_33541" x1="12.1377" x2="10.4546"
            y1="39.7789" y2="65.3603">
            <stop stop-color="#FF9900" />
            <stop offset="0.2312" stop-color="#FF9900" />
            <stop offset="0.6869" stop-color="#FF9900" />
            <stop offset="1" stop-color="#FF9900" />
        </linearGradient>
        <linearGradient gradientUnits="userSpaceOnUse" id="paint2_linear_12691_33541" x1="16.6179" x2="16.6179"
            y1="44.2005" y2="80.725">
            <stop stop-color="#FF9900" />
            <stop offset="0.6869" stop-color="#FF9900" />
            <stop offset="1" stop-color="#FF9900" />
        </linearGradient>
        <linearGradient gradientUnits="userSpaceOnUse" id="paint3_linear_12691_33541" x1="14.2098" x2="14.2098"
            y1="9.03318" y2="44.7464">
            <stop stop-color="#910000" />
            <stop offset="0.4662" stop-color="#810004" />
            <stop offset="1" stop-color="#6A0009" />
        </linearGradient>
        <linearGradient gradientUnits="userSpaceOnUse" id="paint4_linear_12691_33541" x1="48.7886" x2="44.7714"
            y1="28.4432" y2="28.4432">
            <stop stop-color="#FFCBC2" />
            <stop offset="0.2449" stop-color="#FFB0AD" />
            <stop offset="0.5049" stop-color="#FF9B9D" />
            <stop offset="0.7594" stop-color="#FF8E93" />
            <stop offset="1" stop-color="#FF8A90" />
        </linearGradient>
        <linearGradient gradientUnits="userSpaceOnUse" id="paint5_linear_12691_33541" x1="13.3822" x2="16.9662"
            y1="34.6137" y2="34.6137">
            <stop stop-color="#FFCBC2" />
            <stop offset="0.2449" stop-color="#FFB0AD" />
            <stop offset="0.5049" stop-color="#FF9B9D" />
            <stop offset="0.7594" stop-color="#FF8E93" />
            <stop offset="1" stop-color="#FF8A90" />
        </linearGradient>
        <linearGradient gradientUnits="userSpaceOnUse" id="paint6_linear_12691_33541" x1="16.0984" x2="16.0984"
            y1="14.1515" y2="48.7488">
            <stop offset="0.00119874" stop-color="#FFE2DA" />
            <stop offset="0.6791" stop-color="#FFCBC2" />
            <stop offset="0.9999" stop-color="#FFB6B5" />
        </linearGradient>
        <linearGradient gradientUnits="userSpaceOnUse" id="paint7_linear_12691_33541" x1="4.23076" x2="4.23076"
            y1="12.3978" y2="43.409">
            <stop stop-color="#910000" />
            <stop offset="0.4662" stop-color="#810004" />
            <stop offset="1" stop-color="#6A0009" />
        </linearGradient>
        <linearGradient gradientUnits="userSpaceOnUse" id="paint8_linear_12691_33541" x1="36.7713" x2="36.7713"
            y1="44.1991" y2="80.7237">
            <stop stop-color="#FF9900" />
            <stop offset="0.6869" stop-color="#FF9900" />
            <stop offset="1" stop-color="#FF9900" />
        </linearGradient>
        <linearGradient gradientUnits="userSpaceOnUse" id="paint9_linear_12691_33541" x1="27.6104" x2="27.6104"
            y1="29.31" y2="34.963">
            <stop stop-color="#FFCBC2" />
            <stop offset="0.2449" stop-color="#FFB0AD" />
            <stop offset="0.5049" stop-color="#FF9B9D" />
            <stop offset="0.7594" stop-color="#FF8E93" />
            <stop offset="1" stop-color="#FF8A90" />
        </linearGradient>
        <linearGradient gradientUnits="userSpaceOnUse" id="paint10_linear_12691_33541" x1="22.7938" x2="22.7938"
            y1="27.1874" y2="31.9066">
            <stop stop-color="#414042" />
            <stop offset="0.1001" stop-color="#313032" />
            <stop offset="0.2767" stop-color="#1B1B1C" />
            <stop offset="0.4701" stop-color="#0C0C0C" />
            <stop offset="0.691" stop-color="#030303" />
            <stop offset="1" />
        </linearGradient>
        <linearGradient gradientUnits="userSpaceOnUse" id="paint11_linear_12691_33541" x1="33.735" x2="33.735"
            y1="27.1874" y2="31.9066">
            <stop stop-color="#414042" />
            <stop offset="0.1001" stop-color="#313032" />
            <stop offset="0.2767" stop-color="#1B1B1C" />
            <stop offset="0.4701" stop-color="#0C0C0C" />
            <stop offset="0.691" stop-color="#030303" />
            <stop offset="1" />
        </linearGradient>
    </defs>
</svg>
