<svg fill="none" height="30" viewBox="0 0 30 30" width="30" xmlns="http://www.w3.org/2000/svg">
    <path
        d="M22.7056 3.98441C18.2062 1.91811 12.9563 3.7324 10.1231 9.90165L8.94526 12.4663C8.07216 14.3675 5.61229 15.8599 3.38228 16.8737C1.90021 17.5475 1.89066 19.6473 3.37021 20.3268L13.14 24.8135L22.9099 29.3002C24.3893 29.9797 25.9758 28.604 25.5211 27.0408C24.8369 24.6887 24.3658 21.8503 25.2391 19.949L26.4169 17.3844C29.2499 11.2151 27.2049 6.05065 22.7056 3.98441Z"
        fill="#FCC447" />
    <path
        d="M6.50666 18.3086C8.73667 17.2948 11.1965 15.8024 12.0696 13.9012L13.2474 11.3366C15.7441 5.89995 20.1176 3.84601 24.2003 4.84872C23.7392 4.51943 23.24 4.22986 22.7056 3.98441C18.2063 1.91811 12.9563 3.7324 10.1231 9.90165L8.94526 12.4663C8.07216 14.3675 5.61229 15.8599 3.38228 16.8737C1.90021 17.5475 1.89066 19.6473 3.37021 20.3268C3.37021 20.3268 4.76192 20.9659 6.49459 21.7616C5.01505 21.0822 5.0246 18.9824 6.50666 18.3086Z"
        fill="#E8AF3D" />
    <path
        d="M16.5452 26.3785C16.3427 26.8194 16.0649 27.2029 15.7345 27.5196C14.6573 28.5508 13.0186 28.8787 11.5807 28.2183C10.1428 27.558 9.32356 26.1014 9.40384 24.6123C9.42868 24.1554 9.53854 23.6948 9.74098 23.2539L16.5452 26.3785Z"
        fill="#FCC447" />
    <path
        d="M16.5437 26.3786C16.3412 26.8195 16.0634 27.2031 15.733 27.5197L9.40234 24.6123C9.42719 24.1554 9.53705 23.6948 9.73949 23.2539L16.5437 26.3786Z"
        fill="#E8AF3D" />
    <path
        d="M11.6155 24.1148L9.74092 23.2539C8.87807 25.1326 9.70183 27.3556 11.5806 28.2184C11.9058 28.3677 12.2415 28.4654 12.5785 28.517C11.3426 27.4564 10.9021 25.6684 11.6155 24.1148Z"
        fill="#E8AF3D" />
    <path
        d="M26.8994 17.6031C28.3006 14.5519 28.6181 11.5744 27.8177 8.99275C27.2406 7.13199 26.0902 5.55677 24.51 4.42615C24.9723 4.19704 25.3628 3.81572 25.5944 3.3114C26.1318 2.14106 25.6169 0.751745 24.4467 0.214325C23.8797 -0.0460056 23.2454 -0.0699703 22.6605 0.146767C22.0755 0.363563 21.61 0.795104 21.3497 1.36206C21.1242 1.85307 21.0764 2.39459 21.2082 2.9108C20.0237 2.62082 18.8121 2.57025 17.633 2.76994C17.3494 2.81793 17.1584 3.08687 17.2064 3.37058C17.2544 3.65429 17.5232 3.84525 17.807 3.7972C19.3594 3.53429 20.9812 3.7631 22.4966 4.4589C22.4968 4.45896 22.497 4.45913 22.4973 4.45925C22.4975 4.45931 22.4978 4.45948 22.498 4.45954C24.6209 5.43472 26.1566 7.1542 26.8224 9.30148C27.5456 11.634 27.2448 14.3543 25.9525 17.1684L24.7747 19.7331C23.9976 21.4252 24.0834 23.9334 25.0301 27.1877C25.1855 27.7224 25.0274 28.2582 24.6067 28.6209C24.1886 28.9815 23.6391 29.059 23.1363 28.8282L3.59679 19.8546C3.09418 19.6238 2.79471 19.1564 2.79576 18.6043C2.79688 18.0488 3.10016 17.5796 3.60711 17.3492C6.69235 15.9465 8.65072 14.3771 9.4279 12.685L10.6057 10.1203C11.8981 7.30625 13.7655 5.30534 16.006 4.33392C16.27 4.21954 16.3911 3.91269 16.2767 3.64878C16.1622 3.38482 15.8556 3.26365 15.5915 3.37802C13.1117 4.45322 11.0602 6.6343 9.65894 9.68556L8.48115 12.2502C7.82092 13.6877 5.98647 15.1229 3.17592 16.4008C2.30065 16.7988 1.75579 17.6423 1.75391 18.6023C1.75215 19.5591 2.29168 20.4018 3.16203 20.8015L9.0863 23.5222C8.44148 25.5441 9.39281 27.7826 11.3695 28.6904C11.9412 28.9529 12.5488 29.081 13.1515 29.081C14.1945 29.081 15.2233 28.6975 16.0271 27.9633C16.2396 27.7693 16.2545 27.4398 16.0605 27.2273C15.8665 27.0149 15.5369 27 15.3245 27.194C14.3657 28.0696 12.9838 28.2853 11.8042 27.7436C10.3505 27.076 9.63034 25.4559 10.0419 23.9611L22.7016 29.7749C23.0302 29.9259 23.376 29.9999 23.7182 29.9999C24.2822 29.9999 24.8364 29.7988 25.2872 29.4099C26.0143 28.7829 26.2991 27.8199 26.0306 26.8966C25.1684 23.9321 25.0615 21.6053 25.7217 20.1678L26.8994 17.6031ZM22.2966 1.79676C22.4408 1.48276 22.6986 1.2437 23.0225 1.1237C23.169 1.06944 23.3211 1.04243 23.4727 1.04243C23.6565 1.04243 23.8399 1.08215 24.0119 1.16114C24.6602 1.45879 24.9453 2.2283 24.6476 2.87652C24.3499 3.52474 23.5802 3.80992 22.9322 3.5122C22.6182 3.368 22.3791 3.11019 22.2591 2.78623C22.1391 2.46227 22.1522 2.11082 22.2966 1.79676Z"
        fill="black" />
    <path
        d="M23.3297 26.5346C23.4001 26.567 23.474 26.5823 23.5468 26.5823C23.7441 26.5823 23.9329 26.4696 24.0205 26.2786C24.1406 26.0172 24.026 25.7079 23.7645 25.5879L21.508 24.5516C21.2465 24.4315 20.9372 24.5462 20.8172 24.8076C20.6971 25.0691 20.8117 25.3784 21.0733 25.4984L23.3297 26.5346Z"
        fill="black" />
    <path
        d="M4.95394 17.5186C4.83382 17.78 4.94843 18.0894 5.20999 18.2094L19.1308 24.6024C19.2012 24.6347 19.2751 24.6501 19.3478 24.6501C19.5452 24.6501 19.7339 24.5374 19.8216 24.3464C19.9417 24.0849 19.8271 23.7756 19.5655 23.6556L5.64476 17.2625C5.38319 17.1424 5.07388 17.2571 4.95394 17.5186Z"
        fill="black" />
</svg>
