<svg fill="none" height="24" viewBox="0 0 24 24" width="24" xmlns="http://www.w3.org/2000/svg">
    <path
        d="M5.07652 4.18632C5.55433 4.18632 5.94205 3.82599 5.94205 3.38147V0.804935C5.94205 0.360369 5.55433 0 5.07652 0C4.5987 0 4.21094 0.360369 4.21094 0.804888V3.38143C4.21094 3.82595 4.5987 4.18632 5.07652 4.18632Z"
        fill="#D0D3E5" />
    <path
        d="M11.9983 4.18632C12.4762 4.18632 12.8639 3.82599 12.8639 3.38147V0.804935C12.8639 0.360369 12.4762 0 11.9983 0C11.5205 0 11.1328 0.360369 11.1328 0.804888V3.38143C11.1328 3.82595 11.5205 4.18632 11.9983 4.18632Z"
        fill="#D0D3E5" />
    <path
        d="M18.9241 4.18632C19.402 4.18632 19.7897 3.82599 19.7897 3.38147V0.804935C19.7897 0.360369 19.402 0 18.9241 0C18.4463 0 18.0586 0.360369 18.0586 0.804888V3.38143C18.0586 3.82595 18.4463 4.18632 18.9241 4.18632Z"
        fill="#D0D3E5" />
    <path
        d="M8.50129 18.9936C10.119 18.9936 11.3248 17.9823 11.3248 16.4533C11.3248 15.3553 10.662 14.6277 10.1322 14.4181V14.3936C10.7949 13.9866 11.1391 13.3574 11.1391 12.6544C11.1391 11.2976 10.1718 10.3359 8.48809 10.3359C7.02965 10.3359 6.03511 11.113 5.83627 12.1242C5.82307 12.198 5.86267 12.2598 5.9427 12.2721L7.0693 12.5189C7.14933 12.5312 7.20219 12.5066 7.22859 12.4325C7.38788 11.9146 7.77247 11.5691 8.43523 11.5691C9.1905 11.5691 9.6411 12.0378 9.6411 12.7039C9.6411 13.4438 9.12443 13.9248 8.3288 13.9248H7.97061C7.8914 13.9248 7.83849 13.9739 7.83849 14.0481V15.0224C7.83849 15.0965 7.89135 15.1457 7.97061 15.1457H8.3552C9.24326 15.1457 9.8268 15.6639 9.8268 16.5147C9.8268 17.2303 9.33653 17.7605 8.50129 17.7605C7.75851 17.7605 7.32106 17.3658 7.13537 16.8725C7.10896 16.7984 7.04285 16.7739 6.97684 16.7861L5.82302 17.033C5.7438 17.0576 5.70414 17.119 5.71734 17.1931C5.99556 18.3402 7.09576 18.9936 8.50129 18.9936Z"
        fill="#D0D3E5" />
    <path
        d="M14.0562 13.0179L15.4346 12.1176H15.461V18.7282C15.461 18.8023 15.5146 18.8515 15.5938 18.8515H16.8137C16.8929 18.8515 16.9458 18.8024 16.9458 18.7282V10.5881C16.9458 10.5143 16.893 10.4648 16.8137 10.4648H15.6863C15.5806 10.4648 15.5146 10.4894 15.4478 10.5389L14.0034 11.5133C13.9366 11.5624 13.9102 11.612 13.9102 11.6857V12.9438C13.9102 13.0425 13.9762 13.0671 14.0562 13.0179Z"
        fill="#D0D3E5" />
    <path
        d="M20.617 2.10156H20.4802V3.37811C20.4802 4.17686 19.7818 4.82699 18.9224 4.82699C18.0638 4.82699 17.3646 4.17681 17.3646 3.37811V2.10156H13.5575V3.37811C13.5575 4.17686 12.8582 4.82699 11.9996 4.82699C11.1411 4.82699 10.4418 4.17681 10.4418 3.37811V2.10156H6.63463V3.37811C6.63463 4.17686 5.9354 4.82699 5.07682 4.82699C4.21825 4.82699 3.51891 4.17686 3.51891 3.37811V2.10156H3.38295C1.51432 2.10156 0 3.51074 0 5.24878V20.8522C0 22.5902 1.51432 23.9994 3.38295 23.9994H20.617C22.4849 23.9994 24 22.5903 24 20.8522V5.24878C24 3.51074 22.4848 2.10156 20.617 2.10156ZM21.819 20.6133C21.819 21.3621 21.1644 21.9712 20.3598 21.9712H3.6401C2.83519 21.9712 2.1802 21.3622 2.1802 20.6133V6.706H21.819V20.6133Z"
        fill="#D0D3E5" />
</svg>
