<svg fill="none" height="39" viewBox="0 0 42 39" width="42" xmlns="http://www.w3.org/2000/svg">
    <path
        d="M30.71 21.5414C29.7488 21.5417 28.7967 21.7144 27.9061 22.05V5.46172C27.9061 4.94455 27.6848 4.44856 27.291 4.08286C26.8971 3.71716 26.363 3.51172 25.806 3.51172H5.88125C5.3243 3.51172 4.79015 3.71716 4.39633 4.08286C4.0025 4.44856 3.78125 4.94455 3.78125 5.46172V33.5417C3.78125 34.0589 4.0025 34.5549 4.39633 34.9206C4.79015 35.2863 5.3243 35.4917 5.88125 35.4917H25.806C26.1145 35.4894 26.4186 35.4241 26.6968 35.3004C26.9749 35.1766 27.2203 34.9975 27.4155 34.7757C28.4306 35.2367 29.5447 35.4791 30.6747 35.4846C31.8048 35.4901 32.9216 35.2587 33.9419 34.8077C34.9621 34.3566 35.8596 33.6974 36.5674 32.8794C37.2751 32.0614 37.7749 31.1055 38.0294 30.0832C38.2839 29.0608 38.2866 27.9983 38.0372 26.9748C37.7879 25.9514 37.293 24.9934 36.5894 24.1723C35.8858 23.3512 34.9916 22.6881 33.9736 22.2326C32.9556 21.7771 31.84 21.5408 30.71 21.5414Z"
        fill="#231F20" />
    <path
        d="M25.8059 34.7091H5.88109C5.54692 34.7091 5.22643 34.5858 4.99014 34.3664C4.75384 34.147 4.62109 33.8494 4.62109 33.5391V5.45906C4.62109 5.14876 4.75384 4.85116 4.99014 4.63175C5.22643 4.41233 5.54692 4.28906 5.88109 4.28906H25.8059C26.1401 4.28906 26.4606 4.41233 26.6968 4.63175C26.9331 4.85116 27.0659 5.14876 27.0659 5.45906V22.4186C26.6135 22.654 26.1884 22.9321 25.7975 23.2485V6.50738C25.7975 6.19708 25.6647 5.89949 25.4284 5.68007C25.1922 5.46065 24.8717 5.33738 24.5375 5.33738H7.14949C6.81532 5.33738 6.49484 5.46065 6.25854 5.68007C6.02224 5.89949 5.88949 6.19708 5.88949 6.50738V30.7022C5.88949 31.0125 6.02224 31.3101 6.25854 31.5295C6.49484 31.7489 6.81532 31.8722 7.14949 31.8722H24.1293C24.7378 32.8925 25.6105 33.756 26.6686 34.3846C26.4362 34.591 26.1275 34.7071 25.8059 34.7091Z"
        fill="white" />
    <path
        d="M24.9688 24.0229C24.0887 24.985 23.5083 26.1522 23.2904 27.3983C23.0724 28.6445 23.2253 29.9222 23.7324 31.0936H7.14656C7.03517 31.0936 6.92834 31.0525 6.84958 30.9793C6.77081 30.9062 6.72656 30.807 6.72656 30.7036V6.50719C6.72656 6.40375 6.77081 6.30456 6.84958 6.23142C6.92834 6.15828 7.03517 6.11719 7.14656 6.11719H24.5346C24.646 6.11719 24.7528 6.15828 24.8315 6.23142C24.9103 6.30456 24.9546 6.40375 24.9546 6.50719V23.955C24.9571 23.978 24.9619 24.0007 24.9688 24.0229Z"
        fill="#2CA9BC" />
    <path
        d="M11.0055 8.25781C10.4112 8.25766 9.83021 8.42116 9.33598 8.72764C8.84175 9.03413 8.45651 9.46982 8.22896 9.97962C8.00141 10.4894 7.94179 11.0504 8.05763 11.5917C8.17347 12.133 8.45958 12.6302 8.87975 13.0205C9.29993 13.4107 9.83531 13.6765 10.4182 13.7843C11.0011 13.892 11.6052 13.8368 12.1543 13.6256C12.7034 13.4145 13.1727 13.0569 13.5029 12.598C13.8331 12.1392 14.0094 11.5997 14.0094 11.0479C14.0083 10.3084 13.6914 9.59941 13.1284 9.07642C12.5653 8.55343 11.8019 8.25905 11.0055 8.25781Z"
        fill="#231F20" />
    <path
        d="M11.0054 13.0592C10.5772 13.0593 10.1585 12.9416 9.80242 12.7208C9.44631 12.4999 9.16873 12.186 9.00478 11.8187C8.84084 11.4514 8.7979 11.0472 8.8814 10.6572C8.9649 10.2672 9.17108 9.90896 9.47386 9.6278C9.77665 9.34664 10.1624 9.15518 10.5824 9.07765C11.0024 9.00011 11.4377 9.03999 11.8333 9.19222C12.2289 9.34445 12.5669 9.60221 12.8047 9.93288C13.0425 10.2636 13.1694 10.6523 13.1692 11.0499C13.1683 11.5825 12.9401 12.0931 12.5344 12.4698C12.1288 12.8464 11.579 13.0584 11.0054 13.0592Z"
        fill="white" />
    <path
        d="M11.0038 21.395C12.6628 21.395 14.0077 20.1462 14.0077 18.6057C14.0077 17.0652 12.6628 15.8164 11.0038 15.8164C9.34487 15.8164 8 17.0652 8 18.6057C8 20.1462 9.34487 21.395 11.0038 21.395Z"
        fill="#231F20" />
    <path
        d="M11.0037 20.6162C12.1987 20.6162 13.1675 19.7166 13.1675 18.6069C13.1675 17.4972 12.1987 16.5977 11.0037 16.5977C9.80863 16.5977 8.83984 17.4972 8.83984 18.6069C8.83984 19.7166 9.80863 20.6162 11.0037 20.6162Z"
        fill="white" />
    <path
        d="M11.0055 23.3711C10.4112 23.3709 9.83021 23.5344 9.33598 23.8409C8.84175 24.1474 8.45651 24.5831 8.22896 25.0929C8.00141 25.6027 7.94179 26.1637 8.05763 26.705C8.17347 27.2463 8.45958 27.7435 8.87975 28.1337C9.29993 28.524 9.83531 28.7898 10.4182 28.8975C11.0011 29.0053 11.6052 28.9501 12.1543 28.7389C12.7034 28.5278 13.1727 28.1701 13.5029 27.7113C13.8331 27.2525 14.0094 26.713 14.0094 26.1612C14.0085 25.4216 13.6917 24.7125 13.1286 24.1895C12.5655 23.6664 11.802 23.3721 11.0055 23.3711Z"
        fill="#231F20" />
    <path
        d="M11.0054 28.1725C10.5772 28.1726 10.1585 28.0548 9.80242 27.834C9.44631 27.6132 9.16873 27.2993 9.00478 26.932C8.84084 26.5647 8.7979 26.1604 8.8814 25.7705C8.9649 25.3805 9.17108 25.0222 9.47386 24.7411C9.77665 24.4599 10.1624 24.2685 10.5824 24.1909C11.0024 24.1134 11.4377 24.1533 11.8333 24.3055C12.2289 24.4577 12.5669 24.7155 12.8047 25.0462C13.0425 25.3768 13.1694 25.7656 13.1692 26.1632C13.1683 26.6958 12.9401 27.2064 12.5344 27.583C12.1288 27.9597 11.579 28.1716 11.0054 28.1725Z"
        fill="white" />
    <path
        d="M16.9664 32.7188H14.7169C14.6055 32.7188 14.4987 32.7598 14.4199 32.833C14.3411 32.9061 14.2969 33.0053 14.2969 33.1088C14.2969 33.2122 14.3411 33.3114 14.4199 33.3845C14.4987 33.4577 14.6055 33.4988 14.7169 33.4988H16.9664C17.0778 33.4988 17.1846 33.4577 17.2634 33.3845C17.3421 33.3114 17.3864 33.2122 17.3864 33.1088C17.3864 33.0053 17.3421 32.9061 17.2634 32.833C17.1846 32.7598 17.0778 32.7188 16.9664 32.7188Z"
        fill="#231F20" />
    <path
        d="M30.7081 34.7114C29.3885 34.7115 28.0984 34.3483 27.0011 33.6676C25.9037 32.987 25.0484 32.0194 24.5433 30.8873C24.0382 29.7553 23.9059 28.5095 24.1633 27.3076C24.4206 26.1058 25.056 25.0018 25.9891 24.1352C26.9222 23.2687 28.111 22.6785 29.4053 22.4394C30.6996 22.2003 32.0412 22.3229 33.2604 22.7918C34.4796 23.2608 35.5217 24.0548 36.2549 25.0737C36.9881 26.0926 37.3794 27.2905 37.3794 28.5159C37.3772 30.1582 36.6736 31.7328 35.423 32.8942C34.1724 34.0556 32.4768 34.7091 30.7081 34.7114Z"
        fill="#7CC05B" />
    <path
        d="M23.2676 10.6602H15.5606C15.4492 10.6602 15.3424 10.7012 15.2636 10.7744C15.1849 10.8475 15.1406 10.9467 15.1406 11.0502C15.1406 11.1536 15.1849 11.2528 15.2636 11.3259C15.3424 11.3991 15.4492 11.4402 15.5606 11.4402H23.2676C23.379 11.4402 23.4858 11.3991 23.5646 11.3259C23.6434 11.2528 23.6876 11.1536 23.6876 11.0502C23.6876 10.9467 23.6434 10.8475 23.5646 10.7744C23.4858 10.7012 23.379 10.6602 23.2676 10.6602Z"
        fill="#231F20" />
    <path
        d="M11.8289 10.1282L10.8638 11.0245L10.4916 10.6789C10.4529 10.6417 10.4065 10.612 10.3553 10.5915C10.3041 10.5711 10.2489 10.5603 10.1932 10.5599C10.1374 10.5594 10.0821 10.5693 10.0305 10.5889C9.97888 10.6085 9.93198 10.6375 9.89255 10.6741C9.85311 10.7107 9.82193 10.7542 9.80081 10.8022C9.77969 10.8501 9.76906 10.9015 9.76955 10.9532C9.77003 11.005 9.78162 11.0562 9.80363 11.1038C9.82564 11.1514 9.85764 11.1944 9.89775 11.2304L10.5698 11.8544C10.6485 11.9275 10.7553 11.9686 10.8667 11.9686C10.9781 11.9686 11.0849 11.9275 11.1636 11.8544L12.4236 10.6844C12.5001 10.6108 12.5425 10.5123 12.5415 10.41C12.5406 10.3078 12.4964 10.21 12.4185 10.1377C12.3406 10.0654 12.2353 10.0243 12.1252 10.0235C12.0151 10.0226 11.909 10.0619 11.8298 10.1329L11.8289 10.1282Z"
        fill="#231F20" />
    <path
        d="M23.2676 18.2148H15.5606C15.4492 18.2148 15.3424 18.2559 15.2636 18.3291C15.1849 18.4022 15.1406 18.5014 15.1406 18.6048C15.1406 18.7083 15.1849 18.8075 15.2636 18.8806C15.3424 18.9538 15.4492 18.9948 15.5606 18.9948H23.2676C23.379 18.9948 23.4858 18.9538 23.5646 18.8806C23.6434 18.8075 23.6876 18.7083 23.6876 18.6048C23.6876 18.5014 23.6434 18.4022 23.5646 18.3291C23.4858 18.2559 23.379 18.2148 23.2676 18.2148Z"
        fill="#231F20" />
    <path
        d="M11.8289 17.6829L10.8638 18.5791L10.4916 18.2336C10.4529 18.1964 10.4065 18.1666 10.3553 18.1462C10.3041 18.1258 10.2489 18.115 10.1932 18.1146C10.1374 18.1141 10.0821 18.124 10.0305 18.1436C9.97888 18.1632 9.93198 18.1922 9.89255 18.2288C9.85311 18.2654 9.82193 18.3089 9.80081 18.3569C9.77969 18.4048 9.76906 18.4561 9.76955 18.5079C9.77003 18.5597 9.78162 18.6109 9.80363 18.6585C9.82564 18.7061 9.85764 18.7491 9.89775 18.7851L10.5698 19.4091C10.6485 19.4822 10.7553 19.5232 10.8667 19.5232C10.9781 19.5232 11.0849 19.4822 11.1636 19.4091L12.4236 18.2391C12.5001 18.1655 12.5425 18.067 12.5415 17.9647C12.5406 17.8625 12.4964 17.7647 12.4185 17.6924C12.3406 17.62 12.2353 17.579 12.1252 17.5781C12.0151 17.5773 11.909 17.6166 11.8298 17.6876L11.8289 17.6829Z"
        fill="#231F20" />
    <path
        d="M20.9996 25.7734H15.5606C15.4492 25.7734 15.3424 25.8145 15.2636 25.8877C15.1849 25.9608 15.1406 26.06 15.1406 26.1634C15.1406 26.2669 15.1849 26.3661 15.2636 26.4392C15.3424 26.5123 15.4492 26.5534 15.5606 26.5534H20.9996C21.111 26.5534 21.2178 26.5123 21.2966 26.4392C21.3754 26.3661 21.4196 26.2669 21.4196 26.1634C21.4196 26.06 21.3754 25.9608 21.2966 25.8877C21.2178 25.8145 21.111 25.7734 20.9996 25.7734Z"
        fill="#231F20" />
    <path
        d="M11.8289 25.2394L10.8638 26.1356L10.4916 25.7901C10.4529 25.7528 10.4065 25.7231 10.3553 25.7027C10.3041 25.6822 10.2489 25.6715 10.1932 25.671C10.1374 25.6706 10.0821 25.6804 10.0305 25.7C9.97888 25.7197 9.93198 25.7486 9.89255 25.7852C9.85311 25.8218 9.82193 25.8654 9.80081 25.9133C9.77969 25.9612 9.76906 26.0126 9.76955 26.0644C9.77003 26.1162 9.78162 26.1673 9.80363 26.2149C9.82564 26.2625 9.85764 26.3055 9.89775 26.3415L10.5698 26.9655C10.6485 27.0386 10.7553 27.0797 10.8667 27.0797C10.9781 27.0797 11.0849 27.0386 11.1636 26.9655L12.4236 25.7955C12.4637 25.7595 12.4957 25.7165 12.5178 25.6689C12.5398 25.6213 12.5514 25.5702 12.5518 25.5184C12.5523 25.4666 12.5417 25.4152 12.5206 25.3673C12.4995 25.3194 12.4683 25.2758 12.4288 25.2392C12.3894 25.2026 12.3425 25.1736 12.2909 25.154C12.2393 25.1344 12.184 25.1246 12.1282 25.125C12.0724 25.1255 12.0173 25.1362 11.9661 25.1567C11.9148 25.1771 11.8685 25.2068 11.8298 25.2441L11.8289 25.2394Z"
        fill="#231F20" />
    <path
        d="M33.4964 26.4689L30.3254 29.4079L28.7899 27.9805C28.7107 27.9094 28.6046 27.8701 28.4945 27.871C28.3844 27.8719 28.279 27.9129 28.2011 27.9852C28.1233 28.0576 28.0791 28.1554 28.0781 28.2576C28.0772 28.3599 28.1195 28.4584 28.196 28.532L30.0331 30.237C30.1119 30.3101 30.2187 30.3512 30.33 30.3512C30.4414 30.3512 30.5482 30.3101 30.627 30.237L34.0903 27.0203C34.1668 26.9468 34.2091 26.8482 34.2082 26.746C34.2072 26.6437 34.1631 26.5459 34.0852 26.4736C34.0073 26.4013 33.902 26.3603 33.7919 26.3594C33.6817 26.3585 33.5756 26.3978 33.4964 26.4689Z"
        fill="#231F20" />
</svg>
