<svg fill="none" height="32" viewBox="0 0 30 32" width="30" xmlns="http://www.w3.org/2000/svg">
    <g clip-path="url(#clip0_12674_32529)">
        <path
            d="M28.8624 28.6267L20.2847 30.0031L11.707 28.6267C11.707 26.8925 11.707 5.14018 11.707 3.37637L20.2847 2L28.8624 3.37637V28.6267Z"
            fill="#2CA9BC" />
        <path
            d="M28.8625 3.3743H11.707C11.707 3.35849 11.707 3.34405 11.707 3.33093C11.707 1.78256 12.8948 0.515625 14.3464 0.515625H26.2231C27.6747 0.515625 28.8625 1.78256 28.8625 3.33093V3.3743Z"
            fill="white" fill-opacity="0.9" />
        <path
            d="M28.8625 28.6684C28.8625 30.2167 27.6747 31.4837 26.2231 31.4837H14.3464C12.8948 31.4837 11.707 30.2167 11.707 28.6684C11.707 28.656 11.707 28.6416 11.707 28.625H28.8625V28.6684Z"
            fill="white" />
        <path
            d="M21.2973 23.5898L19.3808 23.492L19.2891 21.4477C19.8438 20.856 20.7425 20.856 21.2972 21.4477C21.8521 22.0394 21.8521 22.998 21.2973 23.5898Z"
            fill="#F99D88" />
        <path
            d="M19.2895 21.4453L17.3729 21.3474L17.2812 19.3031C17.836 18.7115 18.7347 18.7115 19.2894 19.3031C19.8442 19.8949 19.8442 20.8535 19.2895 21.4453Z"
            fill="#F99D88" />
        <path
            d="M17.2817 19.3046L15.3651 19.2068L15.2734 17.1625C15.8281 16.5708 16.7269 16.5708 17.2816 17.1625C17.8364 17.7542 17.8364 18.7128 17.2817 19.3046Z"
            fill="#F99D88" />
        <path
            d="M15.275 17.1642L21.2115 10.8319C21.7662 10.2403 21.7662 9.28163 21.2115 8.68988C20.6568 8.09813 19.758 8.0982 19.2033 8.68988C19.2033 8.68988 10.9097 17.5364 9.60083 18.9325C8.2523 20.371 7.69941 22.3291 7.97363 24.1962L1.14062 31.4849H10.591L12.6988 29.2365C14.4492 29.529 16.285 28.9392 17.6335 27.5008C19.1376 25.8965 21.2995 23.5904 21.2995 23.5904L15.275 17.1642Z"
            fill="#FAD4C6" />
        <path
            d="M21.8409 12.3679C21.6136 12.5176 21.543 12.8356 21.6834 13.0781C21.7748 13.2362 21.9333 13.3233 22.0956 13.3233C22.1823 13.3233 22.2701 13.2984 22.3493 13.2463C23.5223 12.474 24.2226 11.1362 24.2226 9.66758C24.2226 7.35015 22.4551 5.46484 20.2825 5.46484C18.8984 5.46484 17.5992 6.2544 16.8921 7.52521C16.7557 7.7704 16.8314 8.08696 17.0612 8.23246C17.291 8.37802 17.5878 8.29721 17.7242 8.05208C18.2579 7.0929 19.2382 6.49703 20.2824 6.49703C21.9214 6.49703 23.2548 7.91933 23.2548 9.66751C23.2547 10.7756 22.7262 11.7851 21.8409 12.3679Z"
            fill="black" />
        <path
            d="M26.2226 0H14.3458C12.6237 0 11.2227 1.49443 11.2227 3.33136V13.7646C11.2227 14.0498 11.4392 14.2808 11.7065 14.2808C11.9738 14.2808 12.1904 14.0498 12.1904 13.7646V3.89098H28.378V28.1089H19.3148C19.0475 28.1089 18.831 28.3399 18.831 28.625C18.831 28.9101 19.0475 29.1411 19.3148 29.1411H28.332C28.1271 30.1829 27.2592 30.9676 26.2226 30.9676H14.3458C14.0785 30.9676 13.8619 31.1986 13.8619 31.4838C13.8619 31.7689 14.0785 31.9999 14.3458 31.9999H26.2226C27.9447 31.9999 29.3458 30.5054 29.3458 28.6685V3.33136C29.3458 1.49443 27.9447 0 26.2226 0ZM14.3458 1.03225H26.2226C27.2592 1.03225 28.1271 1.81699 28.332 2.85874H12.2364C12.4413 1.81699 13.3092 1.03225 14.3458 1.03225Z"
            fill="black" />
        <path
            d="M21.6412 23.9548C22.0007 23.5713 22.1989 23.0613 22.1989 22.5188C22.1989 21.9763 22.0009 21.4663 21.6412 21.0828C21.2425 20.6575 20.709 20.4605 20.1867 20.4922C20.2162 19.9345 20.0316 19.366 19.633 18.9407C19.2734 18.5572 18.7953 18.3459 18.2868 18.3459C18.2505 18.3459 18.2145 18.347 18.1786 18.3491C18.2078 17.7916 18.0233 17.2237 17.6249 16.7987C17.3843 16.5422 17.0951 16.3689 16.7886 16.2785L21.5532 11.1963C22.2955 10.4044 22.2955 9.11614 21.5532 8.32433C20.8109 7.53252 19.603 7.53252 18.8607 8.32433L9.25817 18.5668C7.88832 20.028 7.24098 21.9996 7.46123 24.0118L0.797973 31.1192C0.609009 31.3208 0.609009 31.6475 0.797973 31.8491C0.892484 31.9499 1.01629 32.0002 1.14016 32.0002C1.26397 32.0002 1.38783 31.9499 1.48235 31.8491L8.31529 24.5607C8.42456 24.4441 8.47513 24.2787 8.45111 24.1157C8.19031 22.3423 8.73394 20.5858 9.94243 19.2967L19.545 9.05414C19.9099 8.66476 20.5039 8.66476 20.8688 9.05414C21.2339 9.44345 21.2339 10.0769 20.8688 10.4663L14.9323 16.7986C14.8379 16.8994 14.7906 17.0315 14.7906 17.1636C14.7906 17.2957 14.8379 17.4278 14.9323 17.5286C15.1213 17.7301 15.4277 17.73 15.6166 17.5286C15.9815 17.1393 16.5756 17.1392 16.9405 17.5286C17.3056 17.9179 17.3056 18.5513 16.9405 18.9407C16.8461 19.0415 16.7989 19.1737 16.7989 19.3057C16.7989 19.4378 16.8461 19.5699 16.9405 19.6707C17.1296 19.8722 17.4359 19.8722 17.6249 19.6707C17.9898 19.2813 18.5837 19.2813 18.9487 19.6707C19.3138 20.06 19.3138 20.6935 18.9487 21.0828C18.8543 21.1837 18.807 21.3158 18.807 21.4478C18.807 21.5799 18.8543 21.712 18.9487 21.8128C19.1377 22.0143 19.4441 22.0143 19.633 21.8128C19.998 21.4235 20.5919 21.4235 20.9569 21.8128C21.3219 22.2021 21.3219 22.8356 20.9569 23.225L17.291 27.1353C16.0825 28.4244 14.4357 29.004 12.7733 28.7262C12.6204 28.7004 12.4655 28.7545 12.3561 28.8711L10.2483 31.1193C10.0594 31.3209 10.0594 31.6477 10.2483 31.8492C10.4374 32.0507 10.7437 32.0507 10.9327 31.8492L12.8706 29.782C14.7568 30.0174 16.6053 29.3265 17.9753 27.8652L21.6412 23.9548Z"
            fill="black" />
    </g>
    <defs>
        <clipPath id="clip0_12674_32529">
            <rect fill="white" height="32" width="30" />
        </clipPath>
    </defs>
</svg>
