<svg fill="none" height="32" viewBox="0 0 27 32" width="27" xmlns="http://www.w3.org/2000/svg">
    <path d="M26 31H1" stroke="#231F20" stroke-linecap="round" stroke-linejoin="round" />
    <path
        d="M25.1982 10.6032C25.1982 15.9078 13.5014 26.0716 13.5014 26.0716C13.5014 26.0716 1.80469 15.9078 1.80469 10.6032C1.80469 8.05629 3.03701 5.61365 5.23057 3.8127C7.42413 2.01175 10.3992 1 13.5014 1C16.6036 1 19.5787 2.01175 21.7722 3.8127C23.9658 5.61365 25.1982 8.05629 25.1982 10.6032Z"
        fill="#2CA9BC" stroke="#231F20" stroke-linecap="round" stroke-linejoin="round" />
    <path
        d="M18.3257 10.3332C18.3257 11.116 18.043 11.8813 17.5133 12.5322C16.9836 13.1831 16.2307 13.6904 15.3498 13.99C14.4689 14.2896 13.4996 14.368 12.5644 14.2153C11.6292 14.0627 10.7702 13.6858 10.0959 13.1323C9.42165 12.5788 8.96243 11.8735 8.77632 11.1058C8.59022 10.338 8.68557 9.54216 9.05036 8.81889C9.41514 8.09562 10.0329 7.47737 10.8257 7.04236C11.6184 6.60736 12.5504 6.37512 13.5039 6.375C14.7826 6.37516 16.0088 6.79223 16.913 7.53448C17.8172 8.27673 18.3253 9.28341 18.3257 10.3332Z"
        fill="white" stroke="#231F20" stroke-linecap="round" stroke-linejoin="round" />
</svg>
