<svg fill="none" height="34" viewBox="0 0 35 34" width="35" xmlns="http://www.w3.org/2000/svg">
    <g clip-path="url(#clip0_12682_33096)">
        <path
            d="M25.5114 18.2306C25.5563 18.1152 25.5846 17.9943 25.5956 17.8714C25.6035 17.8272 25.6109 17.7842 25.6178 17.7412C25.1973 17.5199 24.8227 17.2248 24.513 16.8709C24.1728 16.4869 23.9199 16.0376 23.7708 15.5522C23.5006 15.6581 23.2908 15.5302 23.1467 15.4185C22.9838 15.2839 22.8526 15.1167 22.7622 14.9283C22.5706 14.5557 22.4881 14.1391 22.5237 13.7241C22.5286 13.6179 22.5564 13.514 22.6054 13.419C22.6477 13.3501 22.7053 13.2914 22.774 13.247C22.8427 13.2026 22.9207 13.1738 23.0024 13.1625C23.1288 13.145 23.2577 13.1675 23.37 13.2265L23.571 13.2016C23.8126 13.1527 24.0456 13.0695 24.2623 12.9546C25.2168 12.4897 26.2892 11.6188 27.1874 11.0445C27.0746 11.3235 26.8413 11.924 26.9959 11.899C27.5833 11.8754 28.3595 11.4455 28.9036 10.8281C29.0824 11.3812 29.587 11.9811 30.2037 12.4083C30.2444 12.4371 30.2863 12.4646 30.3281 12.492C30.3769 12.5236 30.4262 12.5536 30.4759 12.5824C30.649 12.7049 31.1427 13.0071 31.3423 13.1179L31.4848 13.1969C31.5807 13.1601 31.6848 13.1483 31.7868 13.1624C31.8685 13.1737 31.9466 13.2025 32.0153 13.2469C32.084 13.2913 32.1416 13.35 32.1839 13.4189C32.2329 13.5139 32.2607 13.6178 32.2656 13.724C32.3014 14.1392 32.2189 14.5559 32.0273 14.9287C31.9369 15.1171 31.8058 15.2843 31.6428 15.4189C31.5064 15.5245 31.2599 15.5168 31.0891 15.5464C31.0563 15.6521 31.0229 15.7395 31.0051 15.7894C30.8698 16.1294 30.1017 17.3502 29.1425 17.7647C29.1482 17.8003 29.1543 17.8358 29.1607 17.8714C29.2054 18.1193 29.1914 18.3409 29.5462 18.4654C29.5697 18.4737 30.5761 18.9388 30.612 18.9531C30.612 18.9531 29.743 20.5651 27.1479 20.5651C24.5529 20.5651 23.9959 19.0062 23.9959 19.0062C24.0642 18.9836 25.1865 18.4737 25.2101 18.4654C25.2741 18.4482 25.3338 18.4185 25.3856 18.3781C25.4374 18.3377 25.4802 18.2875 25.5114 18.2306Z"
            fill="white" />
        <path
            d="M25.4372 17.3325C25.4258 17.4875 25.4062 17.6419 25.3786 17.795C25.3663 17.8913 25.3487 17.987 25.3259 18.0815C25.3212 18.0977 25.2942 18.1559 25.3188 18.1094C25.3092 18.1276 25.2988 18.1447 25.2884 18.1623C25.2724 18.1895 25.314 18.1369 25.2907 18.1599C25.284 18.1665 25.2779 18.1737 25.2716 18.1803C25.2621 18.1895 25.2522 18.1983 25.2417 18.2064C25.2681 18.1861 25.2379 18.2072 25.2254 18.214C25.1735 18.2428 25.1249 18.2594 25.0632 18.2868C24.782 18.411 24.5027 18.5393 24.222 18.6647C24.1495 18.6971 24.0769 18.7293 24.0042 18.7614C23.9784 18.7727 23.9524 18.7838 23.9264 18.7951C23.8739 18.8182 23.9839 18.7743 23.937 18.7906C23.8791 18.8077 23.8301 18.8456 23.8003 18.8967C23.7704 18.9478 23.7619 19.0081 23.7765 19.0651C23.7932 19.1219 23.8321 19.1701 23.885 19.1993C23.9378 19.2284 24.0004 19.2363 24.0591 19.2211C24.174 19.1811 24.2855 19.1252 24.3963 19.0758C24.5686 18.999 24.7409 18.9215 24.9132 18.8434L25.2948 18.6717C25.3044 18.6673 25.316 18.6636 25.3256 18.6583C25.3265 18.6578 25.2408 18.6914 25.2863 18.675C25.3086 18.6669 25.3304 18.6578 25.3523 18.6487C25.392 18.633 25.4304 18.6144 25.4671 18.5929C25.5945 18.5162 25.6925 18.401 25.7461 18.265C25.7808 18.1623 25.8042 18.0563 25.8158 17.9488C25.8505 17.7443 25.8828 17.5397 25.8969 17.3325C25.8969 17.2734 25.8727 17.2166 25.8296 17.1747C25.7866 17.1329 25.7281 17.1094 25.6672 17.1094C25.6063 17.1094 25.5478 17.1329 25.5048 17.1747C25.4617 17.2166 25.4375 17.2734 25.4375 17.3325H25.4372Z"
            fill="#211715" />
        <path
            d="M28.8563 17.243C28.8735 17.5408 28.9119 17.837 28.9712 18.1297C28.9955 18.2538 29.0533 18.3693 29.1387 18.4646C29.2241 18.5598 29.3341 18.6312 29.4573 18.6716C29.5343 18.7013 29.3953 18.6422 29.4501 18.668C29.4687 18.6768 29.4878 18.685 29.5066 18.6935C29.5659 18.7206 29.6252 18.7477 29.6844 18.775C29.8449 18.8486 30.0054 18.9224 30.1659 18.9963C30.2754 19.0466 30.3839 19.1006 30.4954 19.1468C30.5485 19.1747 30.6105 19.182 30.6689 19.1671C30.7272 19.1523 30.7776 19.1163 30.8097 19.0667C30.84 19.0155 30.8484 18.9548 30.833 18.8976C30.8175 18.8405 30.7796 18.7916 30.7273 18.7614C30.4909 18.6635 30.2609 18.5476 30.0285 18.4412C29.9158 18.3894 29.8035 18.3365 29.69 18.2863C29.6248 18.2574 29.5777 18.2398 29.5192 18.2078C29.5181 18.2071 29.4877 18.1862 29.5061 18.2001C29.5245 18.2139 29.4934 18.1883 29.4893 18.1846C29.482 18.178 29.4755 18.1707 29.4686 18.1638C29.4749 18.17 29.4911 18.2001 29.4697 18.1653C29.4601 18.15 29.4514 18.1345 29.4423 18.1188C29.4674 18.1616 29.4382 18.1063 29.4328 18.0898C29.4059 17.9823 29.3857 17.8733 29.3724 17.7634C29.3431 17.591 29.3239 17.4172 29.3149 17.2427C29.3137 17.1839 29.289 17.1278 29.2462 17.0863C29.2034 17.0447 29.1457 17.0208 29.0852 17.0195C29.0245 17.0201 28.9664 17.0438 28.9234 17.0855C28.8805 17.1273 28.8561 17.1837 28.8555 17.2427L28.8563 17.243Z"
            fill="#211715" />
        <path
            d="M23.1265 10.9506H23.1252C22.8083 11.1586 22.0743 11.2544 21.7842 11.2324C21.4505 11.2019 21.1299 11.0909 20.8516 10.9095C21.4714 10.6222 21.9644 9.96105 22.1265 9.30838C22.2645 8.75558 22.3466 8.2013 22.711 7.73609C23.0441 7.32322 23.5157 7.03695 24.0437 6.92712C24.5259 6.83057 25.027 6.87976 25.4795 7.06809C25.7275 7.18302 26.0557 7.33077 26.253 7.66319C26.3172 7.76236 26.376 7.86479 26.429 7.97004C26.429 7.97004 26.8349 9.01966 25.7079 9.7495C25.1006 10.1428 24.6565 10.201 24.1584 10.4489C23.5162 10.7683 23.1265 10.9506 23.1265 10.9506Z"
            fill="#B5886A" />
        <path
            d="M24.2635 12.9547C25.218 12.4898 26.2905 11.6189 27.1886 11.0446C27.0758 11.3236 26.8425 11.9241 26.9972 11.8991C27.5845 11.8755 28.3607 11.4456 28.9049 10.8282C29.0836 11.3813 29.5882 11.9812 30.2049 12.4084C30.2456 12.4372 30.2906 12.4607 30.3294 12.4921C30.5844 12.6998 30.7096 12.8025 30.9366 12.9735C31.019 13.0357 31.2588 13.2339 31.3648 13.2431C31.4824 13.2534 31.6017 13.1636 31.7364 13.1595C31.8425 12.7486 31.8814 12.324 31.8517 11.9014C31.7777 10.2508 30.897 9.22516 30.0343 8.65851C29.2663 8.13778 28.3503 7.86261 27.4137 7.87129C26.4454 7.86673 25.4989 8.15134 24.7026 8.68659C24.1869 9.06422 23.7644 9.54875 23.4658 10.1049C23.1672 10.6611 22.9999 11.275 22.9762 11.9018C22.9534 12.3222 22.9831 12.7437 23.0646 13.1571C23.2007 13.1515 23.3345 13.1927 23.4425 13.2735L23.7909 13.1554C23.971 13.1033 24.1427 13.027 24.3011 12.9289"
            fill="#B5886A" />
        <path
            d="M26.629 7.85987C26.5287 7.6347 26.3865 7.42943 26.2095 7.25435C26.0233 7.09352 25.8109 6.96387 25.5809 6.87069C25.0326 6.6344 24.4165 6.5919 23.8393 6.75055C23.2701 6.90554 22.7754 7.25024 22.4418 7.7242C22.096 8.22865 22.0468 8.82245 21.8682 9.38631C21.781 9.67067 21.636 9.93514 21.4417 10.1641C21.2474 10.393 21.0078 10.5817 20.7371 10.719C20.5757 10.7957 20.6001 11.0216 20.7371 11.1044C21.1233 11.3536 21.5815 11.4762 22.0446 11.4544C22.4419 11.4265 22.9019 11.3607 23.2425 11.1454L23.1266 11.1759H23.1281C23.4237 11.1759 23.4242 10.7296 23.1281 10.7296C23.0335 10.7296 22.9571 10.7972 22.8739 10.8328C22.7983 10.8629 22.7206 10.888 22.6415 10.9079C22.4602 10.9564 22.2747 10.9888 22.0874 11.0047C21.6921 11.0339 21.2982 10.9333 20.9689 10.719V11.1044C21.4577 10.857 21.8546 10.4674 22.1041 9.98997C22.3722 9.49641 22.414 8.94277 22.6004 8.42224C22.9607 7.41577 24.0882 6.90156 25.1306 7.1834C25.3727 7.24816 25.6004 7.35585 25.8022 7.50104C25.9912 7.65984 26.1387 7.86007 26.2323 8.08517C26.2634 8.1359 26.3138 8.17272 26.3726 8.18769C26.4314 8.20267 26.4939 8.1946 26.5466 8.16523C26.5982 8.13441 26.6355 8.08548 26.6509 8.0286C26.6662 7.97172 26.6584 7.91129 26.629 7.85987Z"
            fill="#211715" />
        <path
            d="M31.4842 13.4534C31.5217 13.424 31.5651 13.4026 31.6116 13.3905C31.6581 13.3784 31.7067 13.376 31.7542 13.3834C31.8018 13.3908 31.8472 13.4078 31.8875 13.4333C31.9279 13.4588 31.9622 13.4923 31.9884 13.5316C32.0388 13.6512 32.0589 13.7808 32.0471 13.9095C32.048 14.0478 32.0339 14.1859 32.0049 14.3214C31.9522 14.5887 31.8413 14.842 31.6795 15.0642C31.6224 15.1555 31.5382 15.228 31.438 15.2722C31.3121 15.3007 31.1841 15.3192 31.0551 15.3275C30.9966 15.3435 30.9469 15.3813 30.9168 15.4327C30.8868 15.4841 30.8789 15.5449 30.8947 15.602C30.9122 15.6582 30.9513 15.7058 31.0039 15.7348C31.0565 15.7638 31.1186 15.772 31.1773 15.7578C31.3485 15.7495 31.5175 15.716 31.6784 15.6583C31.8461 15.5658 31.9869 15.4334 32.0876 15.2737C32.3127 14.9457 32.4511 14.5688 32.4905 14.1764C32.5329 13.8155 32.5288 13.3607 32.2129 13.1113C32.0622 12.9944 31.8738 12.933 31.6809 12.9378C31.4881 12.9425 31.3032 13.0132 31.1587 13.1373C31.1161 13.1794 31.0922 13.2361 31.0922 13.2951C31.0922 13.3542 31.1161 13.4108 31.1587 13.4529C31.2024 13.4938 31.2607 13.5166 31.3214 13.5166C31.3821 13.5166 31.4404 13.4938 31.4841 13.4529L31.4842 13.4534Z"
            fill="#211715" />
        <path
            d="M30.9508 15.0788C30.9401 15.2352 30.9077 15.3895 30.8545 15.5375C30.8361 15.5938 30.8164 15.6499 30.7956 15.7056C30.7897 15.7212 30.7832 15.7367 30.7777 15.7521C30.7911 15.7149 30.792 15.7209 30.7777 15.7504C30.7 15.9048 30.6123 16.0541 30.515 16.1977C30.2462 16.6148 29.9071 16.985 29.5118 17.2928C29.2865 17.4691 29.024 17.5952 28.7429 17.6618C28.4544 17.724 28.5765 18.1546 28.865 18.0922C29.4494 17.9663 29.945 17.5708 30.3379 17.149C30.6671 16.8062 30.9445 16.4198 31.162 16.0013C31.3077 15.713 31.3923 15.3992 31.4109 15.0785C31.4226 14.7913 30.9631 14.7918 30.9514 15.0785L30.9508 15.0788Z"
            fill="#211715" />
        <path
            d="M23.6326 13.1375C23.4835 13.0095 23.2917 12.9384 23.0927 12.9375C22.8937 12.9367 22.7011 13.0061 22.5509 13.1329C22.2418 13.4017 22.2593 13.8814 22.3104 14.2473C22.4031 14.9116 22.8937 15.9676 23.7543 15.7923C24.0436 15.7334 23.9212 15.3031 23.6322 15.3618C23.4177 15.4055 23.2123 15.2019 23.1006 15.0482C22.9425 14.8232 22.8341 14.5687 22.7825 14.3009C22.7562 14.1719 22.7433 14.0407 22.7442 13.9092C22.7323 13.7805 22.7525 13.6509 22.803 13.5313C22.8291 13.4921 22.8635 13.4586 22.9038 13.433C22.9441 13.4075 22.9896 13.3905 23.0371 13.3831C23.0847 13.3757 23.1333 13.3781 23.1798 13.3902C23.2263 13.4023 23.2697 13.4237 23.3071 13.4531C23.351 13.4935 23.4091 13.5161 23.4696 13.5161C23.53 13.5161 23.5881 13.4935 23.632 13.4531C23.6746 13.411 23.6985 13.3544 23.6985 13.2953C23.6985 13.2363 23.6746 13.1796 23.632 13.1375H23.6326Z"
            fill="#211715" />
        <path
            d="M23.4174 15.0941C23.5504 15.8276 23.8872 16.5118 24.3914 17.0728C24.9188 17.6427 25.6146 18.1168 26.4101 18.2274C26.4688 18.2411 26.5306 18.2327 26.5831 18.2037C26.6356 18.1748 26.6748 18.1275 26.6927 18.0715C26.7084 18.0144 26.7004 17.9537 26.6704 17.9023C26.6404 17.8509 26.5907 17.8131 26.5322 17.7969C25.8055 17.696 25.1981 17.2779 24.7162 16.7573C24.2527 16.2563 23.9908 15.6305 23.8604 14.9755C23.8436 14.9188 23.8046 14.8708 23.7518 14.8417C23.6989 14.8127 23.6365 14.8049 23.5778 14.8201C23.5198 14.8368 23.4706 14.8748 23.4407 14.926C23.4108 14.9771 23.4025 15.0376 23.4174 15.0946V15.0941Z"
            fill="#211715" />
        <path
            d="M31.9758 13.1516C32.243 12.0225 32.0657 10.8371 31.4789 9.82845C30.9832 9.03191 30.2428 8.40654 29.3618 8.04043C28.2256 7.56718 26.9489 7.52079 25.7794 7.91025C24.879 8.20062 24.0999 8.76712 23.5594 9.52457C22.8086 10.5747 22.5934 11.9037 22.8294 13.1498C22.8461 13.2066 22.885 13.2547 22.9379 13.2839C22.9907 13.3131 23.0532 13.3209 23.112 13.3057C23.17 13.2889 23.2192 13.251 23.2491 13.1998C23.279 13.1486 23.2874 13.0882 23.2725 13.0311C23.0781 12.0047 23.2359 10.9053 23.7875 10.0044C23.9862 9.67861 24.2318 9.38207 24.5168 9.12371C24.5742 9.07139 24.6336 9.02084 24.695 8.97205C24.7122 8.95835 24.7296 8.94478 24.7471 8.93132C24.802 8.8892 24.7279 8.94536 24.7603 8.92156C24.7986 8.89366 24.8376 8.86645 24.8774 8.83992C25.0977 8.69335 25.3316 8.56709 25.5761 8.46277C26.6053 8.0264 27.7639 7.97367 28.8306 8.31464C29.6617 8.58081 30.3859 9.09343 30.9014 9.78037C31.2069 10.2032 31.421 10.6818 31.5308 11.1872C31.67 11.795 31.6709 12.4249 31.5335 13.033C31.4664 13.312 31.909 13.4316 31.9765 13.1516H31.9758Z"
            fill="#211715" />
        <path
            d="M28.6842 10.8867C28.8896 11.5026 29.3475 12.0328 29.862 12.4322C30.0918 12.6106 30.3395 12.7653 30.5854 12.9216C30.7965 13.0558 31.0098 13.1877 31.2285 13.3099C31.4853 13.4534 31.7167 13.0681 31.4604 12.9246C31.2594 12.8122 31.0631 12.6911 30.8685 12.5686C30.6476 12.4292 30.4204 12.2931 30.2125 12.1363C29.7505 11.7877 29.3106 11.3181 29.1273 10.7681C29.0366 10.496 28.5928 10.6124 28.6842 10.8867Z"
            fill="#211715" />
        <path
            d="M23.6346 13.4171C23.9777 13.3675 24.3107 13.1915 24.611 13.0295C24.9259 12.8595 25.2274 12.6668 25.5235 12.4677C26.1228 12.0647 26.6979 11.628 27.3062 11.2377L26.9688 10.9856C26.8621 11.2184 26.7821 11.4618 26.7301 11.7116C26.7131 11.7705 26.7113 11.8325 26.7251 11.8921C26.7389 11.9518 26.7677 12.0072 26.809 12.0533C26.9307 12.166 27.1309 12.1165 27.277 12.0892C27.9725 11.9595 28.6141 11.4964 29.069 10.9863C29.2616 10.7702 28.9381 10.4531 28.7441 10.6707C28.372 11.088 27.8885 11.4558 27.337 11.6152C27.2348 11.6447 27.1177 11.6474 27.0267 11.6748C26.9692 11.6726 26.9863 11.6888 27.0779 11.7235C27.1003 11.7262 27.1213 11.7354 27.1382 11.75C27.1552 11.7645 27.1672 11.7836 27.1727 11.8049C27.1985 11.8522 27.1667 11.8381 27.1774 11.8073C27.1956 11.7552 27.1672 11.8528 27.1796 11.7892C27.1841 11.7663 27.1892 11.7434 27.1949 11.7207C27.2527 11.5107 27.325 11.3047 27.4115 11.1042C27.4846 10.923 27.2333 10.75 27.074 10.8522C26.4772 11.2352 25.9126 11.6629 25.3254 12.0593C25.0391 12.2525 24.748 12.4399 24.4448 12.6079C24.1576 12.7673 23.8436 12.9389 23.5121 12.987C23.4536 13.0031 23.4039 13.0409 23.3739 13.0923C23.3439 13.1436 23.3359 13.2044 23.3517 13.2615C23.3691 13.3177 23.4082 13.3653 23.4609 13.3943C23.5135 13.4234 23.5756 13.4316 23.6342 13.4173L23.6346 13.4171Z"
            fill="#211715" />
        <path
            d="M30.2224 27.9706C26.2697 27.9714 21.0916 27.9728 20.1187 27.9736C20.1054 27.9737 20.0922 27.971 20.0801 27.9658C20.0679 27.9606 20.057 27.953 20.0481 27.9435C20.0392 27.9339 20.0324 27.9227 20.0282 27.9104C20.0241 27.8982 20.0226 27.8852 20.0239 27.8724C20.1579 26.4955 20.488 23.7742 20.8618 22.7472C21.1333 22.0012 21.4299 21.1746 21.9112 20.5362C22.6578 19.5453 23.7778 19.0269 24.9002 18.5234C25.1904 18.9196 26.3334 19.5928 27.4505 19.5928C28.8384 19.5928 29.6596 18.7602 29.9325 18.5369C31.0444 19.0365 32.1504 19.5545 32.8902 20.5361C33.3715 21.1745 33.6681 22.0011 33.9396 22.7471C34.3129 23.7719 34.5645 26.487 34.7707 27.8632C34.7728 27.8763 34.7719 27.8898 34.7681 27.9026C34.7644 27.9154 34.7578 27.9273 34.7489 27.9374C34.74 27.9475 34.7289 27.9556 34.7165 27.9612C34.704 27.9667 34.6905 27.9696 34.6767 27.9696C34.0901 27.9698 32.3306 27.9698 30.2224 27.9706Z"
            fill="#E5447E" />
        <path
            d="M31.6131 22.3954C31.6429 23.8366 31.6004 25.2779 31.5712 26.7181C31.5628 27.1353 31.5562 27.5525 31.5547 27.9698C31.5537 28.2571 32.0132 28.2574 32.0141 27.9698C32.0192 26.5147 32.0725 25.0603 32.0796 23.6051C32.0816 23.2018 32.081 22.7985 32.0725 22.3954C32.0666 22.1085 31.6071 22.1071 31.6131 22.3954Z"
            fill="#211715" />
        <path
            d="M22.7298 22.3952C22.6981 23.8338 22.7417 25.2733 22.7713 26.7116C22.78 27.1315 22.7868 27.5514 22.7882 27.9715C22.7893 28.2587 23.2487 28.2592 23.2477 27.9715C23.2427 26.5222 23.1886 25.0735 23.1818 23.6241C23.1799 23.2144 23.1803 22.8048 23.1893 22.3952C23.1957 22.1079 22.7363 22.1079 22.7298 22.3952Z"
            fill="#211715" />
        <path
            d="M30.2205 27.7463L25.3494 27.7475L21.3116 27.7487H20.5874H20.3161H20.2127C20.1969 27.7487 20.1804 27.7477 20.1649 27.7487C20.1583 27.7483 20.1517 27.7483 20.1451 27.7487C20.0859 27.7592 20.1724 27.6764 20.223 27.7894L20.2544 27.902C20.2545 27.7614 20.2669 27.621 20.2913 27.4823C20.3072 27.3315 20.3237 27.1808 20.3407 27.0301C20.3794 26.6882 20.4209 26.3467 20.4652 26.0053C20.5554 25.3164 20.6566 24.6279 20.7915 23.9457C20.8468 23.6653 20.9073 23.3852 20.9847 23.1097C21.0737 22.7935 21.1953 22.4852 21.3135 22.1785C21.6163 21.3943 21.9952 20.6529 22.6394 20.0799C23.3228 19.4721 24.1814 19.088 25.0142 18.7144L24.6998 18.6344C24.9163 18.9226 25.238 19.1317 25.556 19.3016C25.9883 19.537 26.4599 19.6968 26.9492 19.7736C27.8226 19.8969 28.7118 19.6945 29.4379 19.207C29.6652 19.0467 29.8839 18.8751 30.0929 18.6928L29.8145 18.7277C30.8474 19.192 31.9294 19.6898 32.6431 20.5857C33.012 21.0489 33.258 21.5969 33.4698 22.1412C33.6362 22.5446 33.7729 22.9589 33.8789 23.381C34.0883 24.2923 34.1977 25.2257 34.3151 26.1512C34.3725 26.6046 34.4278 27.0584 34.4895 27.5113C34.5038 27.6161 34.5184 27.7209 34.5334 27.8255C34.5344 27.8498 34.5379 27.8739 34.544 27.8974L34.6617 27.7448H34.6407C34.6072 27.7422 34.5736 27.7422 34.5401 27.7448H34.0842L30.2207 27.7456C29.925 27.7456 29.9245 28.1919 30.2207 28.1919L33.9043 28.1911H34.4332C34.6422 28.1911 34.9023 28.2158 34.9832 27.9735C35.0034 27.8601 34.9976 27.7438 34.9662 27.6329C34.9534 27.543 34.9413 27.454 34.9273 27.3481C34.8957 27.11 34.8657 26.8718 34.8356 26.6335C34.7083 25.6223 34.5923 24.6065 34.3953 23.6049C34.3173 23.2059 34.2075 22.8134 34.0671 22.4308C33.8509 21.8417 33.6223 21.2469 33.286 20.7106C32.5475 19.5332 31.2935 18.9023 30.047 18.3419C30.0027 18.319 29.952 18.31 29.9021 18.3162C29.8523 18.3225 29.8056 18.3437 29.7687 18.3768C29.7032 18.4307 29.6401 18.4874 29.5753 18.542C29.5363 18.5749 29.4968 18.6073 29.4569 18.6392C29.4349 18.6568 29.4126 18.6741 29.3899 18.6914C29.3785 18.7001 29.3635 18.7116 29.3269 18.7379C29.0708 18.9264 28.788 19.0781 28.4874 19.1884C27.6551 19.4821 26.7684 19.3837 25.9795 19.0117C25.7775 18.9176 25.5843 18.8065 25.4021 18.6798C25.3372 18.6339 25.2753 18.5843 25.2168 18.531C25.1915 18.508 25.1668 18.4845 25.1433 18.4598C25.1312 18.4473 25.1197 18.4345 25.1081 18.4216C25.0755 18.3857 25.1264 18.4477 25.0969 18.4084C25.0646 18.359 25.0142 18.3232 24.9559 18.3084C24.8976 18.2935 24.8356 18.3007 24.7825 18.3284C24.0116 18.6743 23.2428 19.0319 22.5747 19.5484C22.2375 19.8084 21.9391 20.1125 21.688 20.4522C21.432 20.8149 21.2188 21.2044 21.0523 21.6133C20.7779 22.2273 20.5637 22.8651 20.4125 23.5183C20.2638 24.2001 20.1589 24.8911 20.0631 25.5815C19.9689 26.2614 19.8869 26.9428 19.8168 27.6257C19.7988 27.8024 19.7522 28.0002 19.9185 28.1266C20.0148 28.1851 20.1291 28.209 20.2417 28.1943H20.7485C22.0227 28.1937 23.2969 28.1933 24.5711 28.193L29.6286 28.1917H30.2207C30.5161 28.1925 30.5166 27.7462 30.2205 27.7463Z"
            fill="#211715" />
        <path
            d="M25.3993 13.5835C25.3356 13.7847 25.3771 14.2476 25.7695 14.2869C26.2881 14.2839 26.3156 13.7243 26.1411 13.4612C25.9986 13.2458 25.5775 13.1564 25.3993 13.5835Z"
            fill="#211715" />
        <path
            d="M29.5494 13.5835C29.6131 13.7847 29.5716 14.2476 29.1792 14.2869C28.6606 14.2839 28.633 13.7243 28.8076 13.4612C28.9505 13.2458 29.3708 13.1564 29.5494 13.5835Z"
            fill="#211715" />
        <path
            d="M11.4069 18.0063C11.0911 17.8607 10.5255 17.6006 10.5078 17.5944C10.1385 17.4647 10.1526 17.2342 10.1065 16.9762C10.0948 16.9107 10.0841 16.8452 10.0746 16.7796C11.0318 16.2557 11.7828 14.9967 11.9207 14.6332C11.9752 14.4835 12.0215 14.3311 12.0594 14.1766L12.1223 14.1952C12.2053 14.2211 12.294 14.2246 12.3789 14.2053C12.4638 14.186 12.5417 14.1447 12.6042 14.0857C12.7789 13.9414 12.9195 13.7621 13.0164 13.5602C13.2218 13.1606 13.3103 12.7138 13.2721 12.2687C13.2668 12.155 13.2369 12.0435 13.1845 11.9417C13.1392 11.8679 13.0774 11.8049 13.0038 11.7573C12.9302 11.7098 12.8465 11.6789 12.7589 11.6668C12.6696 11.6541 12.5786 11.6603 12.492 11.6849C12.4055 11.7095 12.3254 11.7519 12.2572 11.8094C12.1766 11.8641 12.0816 11.8954 11.9833 11.8998C11.8851 11.9042 11.7875 11.8814 11.7021 11.8341C11.6399 11.7867 11.5892 11.7267 11.5535 11.6582C11.5177 11.5897 11.4979 11.5144 11.4953 11.4377C11.3739 10.7683 11.075 10.1412 10.6281 9.61818C10.4612 9.43063 10.1707 9.16441 9.93516 9.09402L9.86691 9.07375C9.55344 9.22562 9.22992 9.35708 8.89851 9.46727C8.67969 9.54017 8.39014 9.59428 8.23028 9.45899C8.07876 9.33076 8.1405 9.09849 7.96026 8.99406C7.83831 8.92349 7.66544 8.94887 7.51994 8.9843C5.97885 9.35875 5.05036 10.2686 4.47834 11.4231C4.35764 11.6809 4.16026 11.8032 3.9513 11.8107C3.88946 11.8138 3.82748 11.8133 3.7657 11.8092C3.69758 11.7518 3.61751 11.7093 3.53094 11.6847C3.44438 11.6601 3.35337 11.6539 3.26413 11.6666C3.17654 11.6787 3.09284 11.7096 3.01918 11.7571C2.94552 11.8047 2.88376 11.8677 2.83846 11.9415C2.786 12.0434 2.75616 12.1548 2.75088 12.2685C2.71264 12.7137 2.80109 13.1604 3.00654 13.56C3.10343 13.762 3.24405 13.9412 3.41881 14.0855C3.55818 14.1935 3.73306 14.3122 3.96193 14.2523L4.05401 14.2244C4.24514 14.8185 4.55373 15.3707 4.96249 15.85C5.27015 16.2178 5.63987 16.5322 6.0559 16.7798C6.04633 16.8434 6.03571 16.9085 6.02345 16.976C5.97655 17.2341 5.99148 17.4645 5.62219 17.5942C5.60793 17.599 5.21242 17.7784 4.866 17.9329C4.866 17.9329 5.02624 19.9038 8.04679 19.9038C11.0673 19.9038 11.4069 18.0063 11.4069 18.0063Z"
            fill="white" />
        <path
            d="M12.7251 9.78639C12.634 9.21756 12.4279 8.67188 12.1187 8.18081C11.944 7.90822 11.7383 7.65557 11.5055 7.42763C11.4122 7.33594 11.2703 7.20195 11.1738 7.12078C10.9211 6.92486 10.6511 6.75093 10.367 6.60099C10.1411 6.48027 9.90545 6.37765 9.66239 6.29414C9.12515 6.11417 8.56034 6.02418 7.99207 6.02801C6.9803 6.01133 5.98928 6.30766 5.1623 6.87418C4.27928 7.48937 3.27938 8.58511 3.19936 10.3591C3.19671 10.7874 3.23084 11.2153 3.3014 11.6381L3.30446 11.6634C3.38775 11.6562 3.47166 11.6655 3.55119 11.6906C3.63071 11.7156 3.7042 11.7561 3.76727 11.8094C3.82905 11.8135 3.89103 11.814 3.95287 11.8109C4.16183 11.8033 4.3592 11.6807 4.47991 11.4233C5.05193 10.2688 5.98023 9.35903 7.52151 8.98448C7.66739 8.94905 7.84026 8.92367 7.96183 8.99424C8.14207 9.09848 8.08033 9.33076 8.23185 9.45917C8.39171 9.59446 8.68174 9.54035 8.90008 9.46745C9.23149 9.35726 9.55501 9.2258 9.86848 9.07393L9.93673 9.0942C10.1723 9.16459 10.4632 9.43081 10.6296 9.61836C11.0767 10.141 11.3759 10.7679 11.4977 11.4371C11.5004 11.5138 11.5203 11.5891 11.5561 11.6576C11.5919 11.7261 11.6427 11.7861 11.705 11.8335C11.7904 11.8807 11.888 11.9035 11.9862 11.8991C12.0845 11.8947 12.1795 11.8634 12.2601 11.8087C12.3815 11.706 12.539 11.6527 12.6998 11.6599C12.7024 11.6449 12.7038 11.6367 12.7038 11.6367C12.7778 11.2145 12.8052 10.7859 12.7856 10.3581C12.7768 10.1665 12.7566 9.97565 12.7251 9.78639Z"
            fill="#7A7473" />
        <path
            d="M12.9214 11.6979C13.132 10.4489 13.0019 9.1222 12.2907 8.03427C11.5992 6.99597 10.5264 6.2526 9.29067 5.9554C8.04834 5.65428 6.73604 5.79592 5.59204 6.35459C4.74628 6.78432 4.04489 7.44034 3.57081 8.24507C3.26037 8.78824 3.06475 9.38618 2.99544 10.0038C2.94181 10.5694 2.96909 11.1395 3.07651 11.6979C3.093 11.7548 3.1319 11.8031 3.18479 11.8323C3.23768 11.8616 3.3003 11.8694 3.35908 11.8541C3.41705 11.8372 3.46607 11.7992 3.49594 11.7481C3.52582 11.6969 3.53426 11.6366 3.51951 11.5795C3.4395 11.1372 3.41038 10.6876 3.43269 10.239C3.4649 9.73709 3.58993 9.24487 3.80179 8.78597C4.16366 8.03607 4.73525 7.4001 5.45133 6.95062C6.40078 6.35291 7.57058 6.14741 8.68572 6.29526C9.83863 6.45112 10.8888 7.02306 11.6272 7.89721C12.4887 8.92331 12.6942 10.3014 12.4783 11.5794C12.464 11.6365 12.4726 11.6967 12.5024 11.7477C12.5323 11.7988 12.5811 11.8368 12.6389 11.854C12.6976 11.8693 12.7602 11.8615 12.813 11.8323C12.8659 11.8031 12.9048 11.7549 12.9214 11.6981V11.6979Z"
            fill="#211715" />
        <path
            d="M10.0284 8.74023C9.73918 8.89553 9.43961 9.0319 9.13169 9.14844C8.99326 9.20395 8.85157 9.25145 8.70736 9.2907C8.62342 9.31163 8.47505 9.35049 8.39656 9.3C8.33626 9.26123 8.33128 9.15662 8.30658 9.09069C8.26442 8.95973 8.1708 8.85021 8.04603 8.78589C7.76337 8.64957 7.41121 8.77305 7.13133 8.86028C6.13983 9.1637 5.28163 9.78118 4.69381 10.6141C4.54414 10.8271 4.41082 11.0506 4.29495 11.2826C4.25274 11.401 4.16811 11.5007 4.05651 11.5635C4.02353 11.5775 3.98823 11.5857 3.95227 11.5877C3.93423 11.5884 3.91616 11.5879 3.89819 11.5862C3.87694 11.5828 3.85591 11.5784 3.83511 11.573C3.80266 11.5643 3.79749 11.5623 3.81941 11.5672C3.56365 11.4219 3.3321 11.8075 3.58748 11.9526C3.70942 12.0137 3.8462 12.0415 3.98313 12.0329C4.12007 12.0242 4.25202 11.9796 4.36482 11.9037C4.59876 11.7456 4.6919 11.4928 4.82428 11.2594C5.05678 10.8421 5.35785 10.4646 5.71563 10.1416C6.09348 9.80794 6.53308 9.54696 7.0111 9.37253C7.1379 9.32604 7.26655 9.2846 7.39705 9.24821C7.5077 9.21715 7.72164 9.12603 7.83573 9.182C7.88848 9.20785 7.89546 9.31665 7.91604 9.37328C7.93754 9.44252 7.97295 9.50694 8.02024 9.5628C8.06752 9.61866 8.12574 9.66486 8.19153 9.69872C8.50415 9.84834 8.86817 9.71937 9.17084 9.60946C9.54546 9.47394 9.90954 9.31234 10.2602 9.12593C10.5194 8.98757 10.2879 8.60196 10.0284 8.74051V8.74023Z"
            fill="#211715" />
        <path
            d="M9.87337 9.31022C10.1626 9.40498 10.4118 9.69658 10.5843 9.92858C10.8084 10.2253 10.9871 10.552 11.1149 10.8985C11.176 11.0695 11.2243 11.2447 11.2593 11.4225C11.2767 11.5837 11.3324 11.7387 11.422 11.8754C11.6489 12.1754 12.0622 12.1709 12.373 12.0033C12.6315 11.8638 12.4001 11.4783 12.1411 11.6179C12.0929 11.6518 12.0357 11.6716 11.9763 11.6747C11.9169 11.6779 11.8578 11.6644 11.8061 11.6359C11.8426 11.6577 11.8127 11.6427 11.7976 11.6224C11.8134 11.6438 11.7726 11.5826 11.7677 11.5731C11.7401 11.5116 11.7228 11.4463 11.7162 11.3796C11.655 11.0268 11.5423 10.6842 11.3816 10.3623C11.2224 10.0289 11.0166 9.7184 10.7701 9.43966C10.5619 9.20775 10.2998 8.97975 9.99551 8.87998C9.71466 8.78802 9.59415 9.21891 9.87337 9.31041V9.31022Z"
            fill="#211715" />
        <path
            d="M12.4196 11.9665C12.4596 11.9351 12.5055 11.9118 12.5548 11.8978C12.6041 11.8838 12.6557 11.8794 12.7067 11.8849C12.7578 11.8904 12.8072 11.9056 12.8521 11.9297C12.8971 11.9539 12.9366 11.9864 12.9686 12.0254C13.0282 12.1311 13.0561 12.251 13.0491 12.3714C13.0565 12.5173 13.0487 12.6635 13.0257 12.8078C12.98 13.0943 12.8765 13.3692 12.7212 13.6168C12.61 13.7909 12.422 14.0421 12.1833 13.9794C11.8975 13.905 11.7755 14.3351 12.0612 14.4098C12.4983 14.5242 12.8405 14.2381 13.0741 13.9072C13.3091 13.5582 13.4537 13.1591 13.4952 12.744C13.5389 12.3726 13.5363 11.8921 13.2137 11.6321C13.0554 11.5057 12.8559 11.4381 12.651 11.4415C12.446 11.4449 12.249 11.5191 12.0952 11.6507C12.0526 11.6928 12.0288 11.7494 12.0288 11.8085C12.0288 11.8675 12.0526 11.9242 12.0952 11.9663C12.1389 12.007 12.1971 12.0297 12.2577 12.0297C12.3182 12.0297 12.3764 12.007 12.4201 11.9663L12.4196 11.9665Z"
            fill="#211715" />
        <path
            d="M11.8757 13.8322C11.8645 14.0113 11.8293 14.1881 11.771 14.3583C11.7519 14.419 11.7316 14.4792 11.7106 14.5392C11.7047 14.5561 11.6984 14.5729 11.6924 14.5898C11.6776 14.6325 11.6899 14.5966 11.6912 14.5937C11.6082 14.7673 11.5144 14.9358 11.4103 15.0982C11.1181 15.5736 10.7466 15.9986 10.3111 16.3558C10.0753 16.5508 9.79661 16.6908 9.49643 16.7649C9.2085 16.83 9.33036 17.2601 9.61857 17.1952C10.2548 17.052 10.7843 16.601 11.1993 16.1313C11.5523 15.7446 11.8475 15.3115 12.0762 14.8448C12.2282 14.5265 12.3161 14.1829 12.3352 13.8325C12.3458 13.5452 11.8864 13.5456 11.8757 13.8325V13.8322Z"
            fill="#211715" />
        <path
            d="M3.92771 11.651C3.774 11.5192 3.57698 11.4449 3.37199 11.4415C3.16701 11.4381 2.96749 11.5058 2.80922 11.6324C2.47554 11.902 2.48377 12.4042 2.53288 12.7854C2.57952 13.2059 2.73448 13.6081 2.98343 13.9551C3.22599 14.2755 3.58953 14.5624 4.02257 14.4673C4.31088 14.404 4.18884 13.9736 3.90043 14.037C3.6797 14.0854 3.45495 13.8384 3.34526 13.6821C3.17305 13.4306 3.05688 13.1468 3.00421 12.8491C2.97805 12.7053 2.96728 12.5592 2.97204 12.4133C2.96237 12.2847 2.98762 12.156 3.04527 12.0399C3.07594 11.9983 3.11506 11.9632 3.16022 11.9368C3.20538 11.9104 3.25562 11.8932 3.30785 11.8864C3.36009 11.8795 3.41321 11.8831 3.46396 11.897C3.5147 11.9108 3.562 11.9346 3.60294 11.9668C3.64677 12.0073 3.70492 12.0298 3.76537 12.0298C3.82583 12.0298 3.88398 12.0073 3.92781 11.9668C3.97043 11.9248 3.99431 11.8681 3.99431 11.809C3.99431 11.75 3.97043 11.6933 3.92781 11.6512L3.92771 11.651Z"
            fill="#211715" />
        <path
            d="M3.63672 13.4107C3.81457 14.7993 4.61307 16.1553 5.83924 16.9156C6.19024 17.1381 6.58539 17.2867 6.99918 17.3518C7.05786 17.3656 7.11977 17.3572 7.17229 17.3282C7.22481 17.2993 7.26398 17.252 7.28184 17.1959C7.29757 17.1388 7.28955 17.0781 7.25951 17.0267C7.22947 16.9753 7.17983 16.9375 7.12132 16.9214C6.43893 16.8224 5.85724 16.4491 5.38371 15.9753C4.88089 15.4714 4.50423 14.8619 4.28293 14.1939C4.23449 14.0484 4.19324 13.9009 4.15916 13.7515C4.14487 13.6887 4.1321 13.6257 4.12087 13.5623C4.11526 13.5313 4.10999 13.5003 4.10508 13.4693L4.09991 13.436C4.098 13.4276 4.09688 13.4192 4.09656 13.4107C4.09471 13.352 4.06991 13.2963 4.02723 13.2549C3.98454 13.2134 3.92717 13.1893 3.86683 13.1875C3.80601 13.1878 3.74778 13.2115 3.70478 13.2532C3.66177 13.295 3.63745 13.3516 3.6371 13.4107H3.63672Z"
            fill="#211715" />
        <path
            d="M4.98222 18.1254C5.18565 18.0345 5.38887 17.9432 5.59186 17.8516C5.63886 17.8305 5.68758 17.8113 5.73372 17.7883C5.62115 17.8441 5.73276 17.7901 5.75755 17.78C5.78799 17.7675 5.81833 17.7551 5.84743 17.7397C5.89965 17.7117 5.94845 17.6781 5.99293 17.6396C6.12429 17.5142 6.20568 17.3477 6.22266 17.1696C6.26094 16.9313 6.30325 16.6942 6.32211 16.4536C6.32183 16.3945 6.29754 16.3379 6.25452 16.2961C6.21149 16.2543 6.15322 16.2307 6.09238 16.2305C6.03191 16.2319 5.97432 16.2559 5.93155 16.2974C5.88878 16.3389 5.86411 16.3949 5.86265 16.4536C5.84638 16.6609 5.81316 16.8417 5.77966 17.0512C5.76955 17.1195 5.75315 17.1869 5.73065 17.2524C5.7498 17.1978 5.73458 17.2419 5.72702 17.2553C5.72376 17.261 5.68796 17.3122 5.70902 17.2855C5.73008 17.2588 5.68528 17.3078 5.68107 17.3124C5.65111 17.345 5.71237 17.2961 5.66863 17.3231C5.558 17.3828 5.44361 17.4356 5.32614 17.4812C5.13413 17.5676 4.94205 17.6539 4.7499 17.7401C4.69765 17.7703 4.65971 17.8192 4.64429 17.8764C4.62887 17.9335 4.6372 17.9942 4.66749 18.0455C4.69921 18.0955 4.74957 18.1317 4.8081 18.1467C4.86662 18.1616 4.92881 18.154 4.98174 18.1255L4.98222 18.1254Z"
            fill="#211715" />
        <path
            d="M9.80859 16.4536C9.83 16.7191 9.86695 16.9832 9.91925 17.2447C9.93868 17.3554 9.98523 17.46 10.055 17.5496C10.1247 17.6392 10.2156 17.7113 10.32 17.7596C10.3468 17.772 10.4148 17.8154 10.4468 17.8107C10.4192 17.8149 10.3745 17.7792 10.4077 17.795C10.4263 17.8039 10.4452 17.8119 10.464 17.8204C10.5434 17.8564 10.6228 17.8927 10.702 17.9292C10.8984 18.0193 11.0948 18.1096 11.291 18.2001C11.344 18.2284 11.4061 18.2358 11.4646 18.2209C11.5231 18.206 11.5735 18.1699 11.6054 18.12C11.6356 18.0688 11.6439 18.0081 11.6284 17.951C11.613 17.8939 11.5751 17.8449 11.5229 17.8147C11.2242 17.6771 10.9275 17.5334 10.6252 17.4034C10.5786 17.387 10.5335 17.3667 10.4904 17.3429C10.4782 17.3358 10.4662 17.3283 10.4546 17.3204C10.4741 17.3359 10.4741 17.3356 10.4546 17.3196C10.4417 17.3069 10.4289 17.2943 10.4163 17.2815C10.4546 17.3201 10.4108 17.2715 10.4031 17.2582C10.3978 17.2489 10.3927 17.2391 10.388 17.2293C10.3989 17.2555 10.4013 17.2607 10.3953 17.2451C10.3885 17.2055 10.3705 17.166 10.3624 17.126C10.3178 16.9038 10.2864 16.6793 10.2682 16.4536C10.2668 16.3949 10.2421 16.3389 10.1993 16.2974C10.1566 16.2559 10.099 16.2319 10.0385 16.2305C9.97774 16.231 9.9196 16.2546 9.87662 16.2964C9.83365 16.3381 9.80929 16.3946 9.80879 16.4536H9.80859Z"
            fill="#211715" />
        <path
            d="M4.87581 27.9668C2.67032 27.9668 0.865136 27.968 0.321732 27.9684C0.308362 27.9685 0.295128 27.9658 0.282902 27.9606C0.270676 27.9553 0.259735 27.9476 0.250801 27.9379C0.241866 27.9283 0.23514 27.9169 0.231065 27.9045C0.226991 27.8921 0.22566 27.8791 0.227161 27.8661C0.360308 26.6501 0.791049 23.5187 0.99522 22.6077C1.16819 21.836 1.34603 21.0506 1.70029 20.3797C2.47467 18.9127 3.92493 18.264 5.26501 17.6992C5.59764 18.153 6.89436 18.9195 8.1617 18.9195C9.72423 18.9195 10.6548 17.9858 10.9739 17.72C12.299 18.2807 13.7224 18.9313 14.4868 20.3793C14.841 21.0502 15.0188 21.8357 15.1918 22.6074C15.3957 23.5175 15.8259 26.6439 15.9594 27.8624C15.9609 27.8753 15.9596 27.8884 15.9555 27.9008C15.9514 27.9132 15.9446 27.9245 15.9357 27.9342C15.9267 27.9439 15.9158 27.9516 15.9035 27.9568C15.8913 27.9621 15.8781 27.9648 15.8647 27.9647C14.7042 27.9649 9.0675 27.9657 4.87581 27.9668Z"
            fill="white" />
        <path
            d="M12.6286 22.356C12.5848 23.9774 12.6448 25.6012 12.6852 27.2224C12.6913 27.4714 12.6993 27.7206 12.6995 27.9696C12.6995 28.2568 13.159 28.2573 13.159 27.9696C13.1585 27.4117 13.1349 26.8524 13.1207 26.2942C13.0994 25.4294 13.0807 24.5638 13.0764 23.6984C13.0742 23.2509 13.0755 22.8034 13.0876 22.356C13.0954 22.0687 12.6359 22.0689 12.6281 22.356H12.6286Z"
            fill="#211715" />
        <path
            d="M4.87545 27.7418C3.5778 27.7418 2.28012 27.7422 0.982411 27.743C0.810115 27.743 0.637818 27.743 0.465522 27.743C0.436348 27.7415 0.407113 27.7415 0.377938 27.743C0.371142 27.7437 0.338789 27.7382 0.333141 27.743C0.380235 27.7027 0.40876 27.9147 0.457577 27.8546C0.462938 27.848 0.459779 27.8267 0.461693 27.8179C0.480263 27.7332 0.481699 27.6413 0.491941 27.555C0.545066 27.1052 0.603359 26.6559 0.663567 26.2067C0.7948 25.2276 0.931584 24.2481 1.09986 23.2743C1.17864 22.8192 1.27723 22.3683 1.39047 21.9201C1.55826 21.256 1.77612 20.6034 2.177 20.0347C2.84943 19.0805 3.92198 18.5199 4.98218 18.059C5.11456 18.0015 5.24751 17.9451 5.38056 17.8891L5.06622 17.809C5.30801 18.1315 5.66973 18.3669 6.02495 18.5574C6.49775 18.8162 7.01241 18.995 7.5469 19.0862C8.54222 19.2405 9.56049 19.0166 10.3904 18.4609C10.6501 18.2796 10.899 18.084 11.1358 17.8751L10.8575 17.91C11.6137 18.2302 12.3747 18.5673 13.0349 19.0549C13.738 19.5732 14.2658 20.2836 14.5507 21.0951C14.7924 21.8093 14.9724 22.5419 15.0885 23.2852C15.2041 23.9547 15.3025 24.6272 15.3979 25.2998C15.494 25.977 15.5841 26.655 15.6681 27.3339C15.6842 27.4652 15.6997 27.5967 15.7148 27.7282C15.7165 27.7571 15.7196 27.786 15.7244 27.8146C15.7263 27.8231 15.7234 27.8555 15.7294 27.8603C15.6815 27.8224 15.9173 27.7772 15.8442 27.7394C15.8108 27.7341 15.7767 27.7341 15.7433 27.7394H15.1698L10.9705 27.7399C9.15548 27.7399 7.3404 27.7403 5.52529 27.741H4.87545C4.57977 27.741 4.57929 28.1874 4.87545 28.1874C6.74237 28.1869 8.60933 28.1865 10.4763 28.1862C11.9777 28.1862 13.4791 28.186 14.9803 28.1856H15.626C15.7002 28.1856 15.7753 28.189 15.8494 28.1856C15.9051 28.1866 15.9601 28.1742 16.0097 28.1496C16.0593 28.125 16.1019 28.0889 16.1338 28.0445C16.1836 27.9607 16.1995 27.8618 16.1786 27.7672C16.1054 27.119 16.0193 26.4721 15.9307 25.8256C15.7376 24.417 15.561 22.9949 15.191 21.6173C15.0673 21.1191 14.8823 20.6371 14.64 20.1818C14.4209 19.7914 14.1432 19.4348 13.8159 19.1239C13.1951 18.5318 12.428 18.1159 11.6431 17.7645C11.4594 17.6823 11.2743 17.603 11.0889 17.5245C11.0445 17.5017 10.9939 17.4928 10.944 17.4991C10.8942 17.5053 10.8476 17.5264 10.8106 17.5594C10.7357 17.6221 10.6631 17.6873 10.5885 17.7503C10.4787 17.8433 10.3754 17.9244 10.2822 17.991C9.97975 18.2106 9.64526 18.3851 9.28978 18.5088C8.34062 18.8279 7.33555 18.6977 6.44583 18.2686C6.22669 18.1641 6.01702 18.0418 5.81906 17.903C5.74705 17.8518 5.67818 17.7966 5.61278 17.7377C5.57899 17.7072 5.54578 17.6757 5.51486 17.6426C5.50529 17.6326 5.49571 17.6222 5.48681 17.6121C5.47791 17.6019 5.46949 17.5923 5.46106 17.5822C5.47727 17.603 5.47794 17.6036 5.46307 17.584C5.43067 17.5346 5.3803 17.499 5.32204 17.4842C5.26377 17.4693 5.20188 17.4764 5.14873 17.5039C4.02306 17.9793 2.87164 18.5094 2.06759 19.443C1.22774 20.4184 0.922969 21.6987 0.698122 22.9238C0.51568 23.918 0.379087 24.9209 0.24259 25.9218C0.175586 26.4134 0.111772 26.9054 0.0511494 27.3978C0.0392801 27.4961 0.027666 27.5944 0.0163072 27.6928C0.00261922 27.8119 -0.0230338 27.9289 0.0450233 28.0386C0.162759 28.2289 0.417183 28.1899 0.612836 28.1898C1.82363 28.189 3.0344 28.1886 4.24513 28.1885H4.87564C5.17103 28.188 5.17161 27.7417 4.87545 27.7418Z"
            fill="#211715" />
        <path
            d="M3.09818 22.356C3.14211 23.9774 3.082 25.6012 3.0417 27.2224C3.03548 27.4714 3.02754 27.7206 3.02734 27.9696C3.02734 28.2568 3.4868 28.2573 3.4868 27.9696C3.48728 27.4117 3.51083 26.8524 3.52509 26.2942C3.54634 25.4294 3.565 24.5638 3.56931 23.6984C3.57151 23.2509 3.57027 22.8034 3.55811 22.356C3.55036 22.0694 3.0909 22.0683 3.09866 22.356H3.09818Z"
            fill="#211715" />
        <path
            d="M5.91617 12.1983C5.84917 12.4108 5.89272 12.8994 6.307 12.9411C6.85461 12.9378 6.88371 12.347 6.69945 12.0692C6.5484 11.8415 6.10464 11.7468 5.91617 12.1983Z"
            fill="#211715" />
        <path
            d="M10.2837 12.1983C10.3507 12.4107 10.3072 12.8995 9.89289 12.941C9.34527 12.9378 9.31617 12.3469 9.50043 12.0692C9.65138 11.8415 10.0951 11.7469 10.2837 12.1983Z"
            fill="#211715" />
        <path
            d="M9.25902 15.0294C8.55953 15.146 7.84684 15.1686 7.14101 15.0965C6.84803 15.0611 6.77357 15.5014 7.06772 15.5371C7.81224 15.6157 8.56435 15.5944 9.30288 15.4738C9.36298 15.4669 9.418 15.4377 9.45648 15.3923C9.49496 15.3469 9.51394 15.2889 9.50945 15.2302C9.50312 15.1716 9.47333 15.1177 9.4265 15.0801C9.37967 15.0425 9.31953 15.0243 9.25902 15.0294Z"
            fill="#211715" />
        <path
            d="M28.2893 16.0166C27.7125 16.1178 27.1257 16.1423 26.5453 16.0892C26.3045 16.0627 26.2393 16.4232 26.4811 16.45C27.0932 16.508 27.7125 16.4843 28.3215 16.3795C28.371 16.3733 28.4165 16.349 28.4486 16.3116C28.4807 16.2742 28.4968 16.2266 28.4937 16.1787C28.489 16.1308 28.4649 16.087 28.4267 16.0566C28.3885 16.0263 28.3392 16.0119 28.2893 16.0166Z"
            fill="#211715" />
    </g>
    <defs>
        <clipPath id="clip0_12682_33096">
            <rect fill="white" height="34" width="35" />
        </clipPath>
    </defs>
</svg>
