<svg fill="none" height="20" viewBox="0 0 20 20" width="20" xmlns="http://www.w3.org/2000/svg">
    <path
        d="M0.761871 18.2039C1.27887 18.7849 2.01887 19.0449 2.90887 19.0449C3.88387 19.0449 5.04187 18.7259 6.28187 18.1849C7.42587 18.7039 8.67787 18.9959 9.99087 18.9959C11.6099 18.9959 13.2069 18.5529 14.6069 17.7139C16.6719 16.4799 18.1309 14.5219 18.7139 12.1989C19.1259 10.5559 19.0579 8.86992 18.5509 7.29092C19.8609 5.05492 20.3039 3.02792 19.2229 1.81092C18.5619 1.06692 17.6429 0.719918 16.6479 0.827918C15.8169 0.917918 14.9619 1.32892 14.0999 2.01892C12.8569 1.37892 11.4659 1.01892 10.0029 1.01892C8.38487 1.01892 6.78787 1.46192 5.38787 2.30092C3.32087 3.53492 1.86287 5.49392 1.27887 7.81592C0.829871 9.60392 0.945871 11.4459 1.58487 13.1409C0.519871 14.3449 -0.469128 16.8179 0.761871 18.2039ZM2.25787 16.8759C2.04087 16.6319 2.26087 15.8059 2.63487 15.1159C3.08687 15.7719 3.61287 16.3529 4.19987 16.8549C3.17587 17.1569 2.48787 17.1379 2.25787 16.8759ZM16.7749 11.7109C16.3219 13.5149 15.1879 15.0359 13.5809 15.9959C12.4899 16.6489 11.2479 16.9949 9.99087 16.9949C9.56887 16.9949 9.15787 16.9449 8.75387 16.8729C10.2409 15.9619 11.7579 14.8329 13.1669 13.5809C14.5779 12.3279 15.8889 10.9549 16.9699 9.58492C17.0139 10.2909 16.9519 11.0069 16.7749 11.7109ZM16.8659 2.81392C17.2219 2.78092 17.4979 2.87792 17.7269 3.13692C17.9579 3.39792 17.8959 4.08292 17.4749 5.06592C17.0139 4.36492 16.4699 3.74692 15.8579 3.21292C16.2889 2.95092 16.6339 2.83992 16.8659 2.81392ZM3.21887 8.30392C3.67187 6.49992 4.80687 4.97792 6.41387 4.01792C7.50487 3.36492 8.74587 3.01892 10.0029 3.01892C12.4759 3.01892 14.7119 4.29192 15.9859 6.42392C16.1159 6.64192 16.2309 6.86392 16.3369 7.09092C15.3659 8.53192 13.9039 10.2509 11.8389 12.0849C9.77587 13.9179 7.89687 15.1669 6.35087 15.9609C5.41187 15.3829 4.60187 14.5849 4.00787 13.5899C3.04587 11.9839 2.76587 10.1059 3.21887 8.30392Z"
        fill="#2CA9BC" fill-opacity="0.7" />
</svg>
