<svg fill="none" height="30" viewBox="0 0 30 30" width="30" xmlns="http://www.w3.org/2000/svg">
    <path
        d="M6.5625 8.66406C5.325 8.66406 4.6875 8.02656 4.6875 6.78906C4.6875 5.55156 5.325 4.91406 6.5625 4.91406H26.0625C26.0625 4.91406 26.8125 4.91406 26.8125 5.66406V8.66406H6.5625Z"
        fill="#C89005" />
    <path
        d="M26.8125 9.03906H6.5625C5.1 9.03906 4.3125 8.25156 4.3125 6.78906C4.3125 5.32656 5.1 4.53906 6.5625 4.53906H26.0625C26.5125 4.53906 27.1875 4.83906 27.1875 5.66406V8.66406C27.1875 8.88906 27 9.03906 26.8125 9.03906ZM26.0625 5.28906H6.5625C5.5125 5.28906 5.0625 5.73906 5.0625 6.78906C5.0625 7.83906 5.5125 8.28906 6.5625 8.28906H26.4375V5.66406C26.4375 5.36406 26.2125 5.28906 26.0625 5.28906Z"
        fill="#231C1C" />
    <path
        d="M26.5862 14.4737C26.6612 14.8862 26.3987 15.2612 25.9862 15.3737L8.36121 18.9737C7.94871 19.0487 7.57371 18.7862 7.46121 18.3737L5.28621 7.72371C5.21121 7.31121 5.47371 6.93621 5.88621 6.82371L23.5112 3.22371C23.9237 3.14871 24.2987 3.41121 24.4112 3.82371L26.5862 14.4737Z"
        fill="#C11F29" />
    <path
        d="M8.2138 19.3519C7.6888 19.3519 7.2388 18.9769 7.1263 18.4519L4.9513 7.80193C4.8763 7.50193 4.9513 7.20193 5.1013 6.93943C5.2513 6.67693 5.5138 6.52693 5.8138 6.45193L23.4388 2.85193C24.0388 2.73943 24.6388 3.11443 24.7513 3.71443L26.9263 14.3644C27.0388 14.9644 26.6638 15.5644 26.0638 15.6769L8.4388 19.2769C8.3638 19.3519 8.2888 19.3519 8.2138 19.3519ZM23.6638 3.60193H23.5888L5.9638 7.20193C5.7763 7.23943 5.6263 7.42693 5.6638 7.65193L7.8388 18.3019C7.8763 18.4894 8.0638 18.6394 8.2888 18.6019L25.9138 15.0019C26.0263 14.9644 26.1013 14.9269 26.1388 14.8519C26.1763 14.7769 26.2138 14.6644 26.1763 14.5519L24.0013 3.90193C24.0013 3.71443 23.8513 3.60193 23.6638 3.60193Z"
        fill="#231C1C" />
    <path
        d="M25.2012 7.72321C25.2387 7.98571 24.9762 8.28571 24.5637 8.36071L6.93871 11.9607C6.52621 12.0357 6.15121 11.8857 6.11371 11.6232L5.85121 10.3857C5.81371 10.1232 6.07621 9.82321 6.48871 9.74821L24.1137 6.14821C24.5262 6.07321 24.9012 6.22321 24.9387 6.48571L25.2012 7.72321Z"
        fill="#513328" />
    <path
        d="M6.713 12.3735C6.2255 12.3735 5.813 12.111 5.738 11.6985L5.4755 10.4985C5.363 10.011 5.7755 9.5235 6.413 9.411L24.038 5.811C24.638 5.6985 25.2005 5.961 25.313 6.4485L25.5755 7.686C25.688 8.1735 25.2755 8.661 24.638 8.7735L7.013 12.3735H6.713ZM24.338 6.5235H24.188L6.563 10.1235C6.338 10.161 6.2255 10.2735 6.2255 10.3485L6.488 11.5485C6.5255 11.586 6.6755 11.6235 6.863 11.586L24.488 7.986C24.713 7.9485 24.8255 7.836 24.8255 7.7985L24.563 6.5985C24.563 6.561 24.488 6.5235 24.338 6.5235ZM15.0331 14.1457L18.3391 13.4666L18.4902 14.2016L15.1839 14.8804L15.0331 14.1457ZM13.1277 16.0612L20.8422 14.4769L20.993 15.2119L13.2785 16.7963L13.1277 16.0612Z"
        fill="#231C1C" />
    <path
        d="M24.6017 20.0998C24.4892 20.5123 24.0767 20.7373 23.6642 20.5873L5.36422 14.9998C4.98922 14.8873 4.76422 14.4748 4.87672 14.0623L8.17672 3.29975C8.28922 2.88725 8.70172 2.66225 9.11422 2.81225L27.4517 8.39975C27.8267 8.51225 28.0517 8.92475 27.9392 9.33725L24.6017 20.0998Z"
        fill="#B8CA43" />
    <path
        d="M23.886 21.0385C23.7735 21.0385 23.661 21.0385 23.5485 21.001L5.24848 15.376C4.94848 15.301 4.72348 15.076 4.57348 14.8135C4.42348 14.551 4.42348 14.251 4.49848 13.951L7.79848 3.18855C7.98598 2.58855 8.58598 2.25105 9.18598 2.43855L27.5235 8.02605C28.1235 8.21355 28.4235 8.85105 28.2735 9.41355L24.9735 20.176C24.8985 20.476 24.711 20.701 24.4485 20.851C24.261 20.9635 24.0735 21.0385 23.886 21.0385ZM8.88598 3.15105C8.73598 3.15105 8.58598 3.26355 8.54848 3.41355L5.24848 14.176C5.21098 14.2885 5.21098 14.3635 5.28598 14.476C5.32348 14.551 5.39848 14.626 5.51098 14.6635L23.811 20.251C23.886 20.2885 23.9985 20.251 24.0735 20.2135C24.1485 20.176 24.2235 20.101 24.261 19.9885L27.561 9.22605C27.636 9.03855 27.5235 8.81355 27.336 8.77605L8.96098 3.18855C8.92348 3.15105 8.92348 3.15105 8.88598 3.15105Z"
        fill="#231C1C" />
    <path
        d="M23.6242 17.0633L25.3867 11.3258C24.5992 11.1008 24.1867 10.2383 24.4117 9.45078L10.9867 5.36328C10.7617 6.15078 9.89922 6.60078 9.14922 6.37578L7.38672 12.1133C8.17422 12.3383 8.58672 13.2008 8.36172 13.9883L21.7492 18.0758C22.0117 17.2883 22.8367 16.8383 23.6242 17.0633Z"
        fill="#B8CA43" />
    <path
        d="M22.0125 18.525L7.9125 14.2125L8.025 13.8375C8.1 13.5375 8.1 13.2375 7.95 12.975C7.8 12.7125 7.575 12.525 7.3125 12.45L6.9375 12.3375L8.925 5.8875L9.3 6C9.8625 6.1875 10.5 5.85 10.6875 5.25L10.8 4.875L24.9 9.1875L24.7875 9.5625C24.7125 9.8625 24.7125 10.1625 24.8625 10.425C25.0125 10.6875 25.2375 10.875 25.5 10.95L25.875 11.0625L23.8875 17.5125L23.5125 17.4C22.95 17.2125 22.3125 17.55 22.125 18.15L22.0125 18.525ZM8.8125 13.725L21.5625 17.625C21.9 16.95 22.6125 16.575 23.3625 16.65L24.9375 11.55C24.6375 11.3625 24.375 11.1 24.1875 10.8C24 10.4625 23.9625 10.125 24 9.75L11.25 5.85C10.9125 6.525 10.1625 6.9 9.45 6.825L7.875 11.8875C8.175 12.075 8.4375 12.3375 8.625 12.6375C8.775 12.975 8.85 13.35 8.8125 13.725Z"
        fill="#231C1C" />
    <path
        d="M14.8362 16.7336C16.0536 17.1058 17.3829 16.9339 18.5316 16.2556C19.6804 15.5773 20.5544 14.4481 20.9616 13.1166C21.3687 11.7851 21.2756 10.3602 20.7026 9.15545C20.1297 7.9507 19.1239 7.06475 17.9065 6.69251C16.6891 6.32027 15.3598 6.49222 14.2111 7.17054C13.0624 7.84886 12.1883 8.97798 11.7812 10.3095C11.374 11.641 11.4672 13.0659 12.0401 14.2707C12.613 15.4754 13.6188 16.3614 14.8362 16.7336Z"
        fill="#E1E0A6" />
    <path
        d="M16.1266 17.2877C15.6766 17.2877 15.1891 17.2127 14.7391 17.0627C13.4266 16.6502 12.3391 15.7127 11.7016 14.4002C11.1016 13.0877 10.9891 11.5877 11.4391 10.1627C11.8891 8.73768 12.7891 7.53768 14.0266 6.82518C15.2641 6.07518 16.6891 5.88768 18.0016 6.30018C20.7391 7.12518 22.2016 10.2377 21.3016 13.2002C20.5891 15.6752 18.4141 17.2877 16.1266 17.2877ZM16.6141 6.86268C15.8641 6.86268 15.1141 7.08768 14.4016 7.50018C13.3141 8.13768 12.5266 9.18768 12.1516 10.4252C11.7766 11.6627 11.8516 12.9752 12.3766 14.1002C12.9016 15.2252 13.8016 16.0127 14.9266 16.3502C17.2516 17.0627 19.8016 15.5627 20.5891 12.9752C21.3766 10.3877 20.1016 7.72518 17.7766 7.01268C17.4391 6.93768 17.0266 6.86268 16.6141 6.86268Z"
        fill="#231C1C" />
    <path d="M14.4805 16.6245L17.5465 6.58203L18.2638 6.80103L15.1978 16.8435L14.4805 16.6245Z"
        fill="#231C1C" />
    <path
        d="M15.8267 15.749C15.6017 15.749 15.4142 15.7115 15.1892 15.6365C14.5892 15.449 14.1017 15.0365 13.8392 14.474C13.6142 13.949 13.5767 13.3865 13.7267 12.8615L14.4392 13.0865C14.3267 13.4615 14.3642 13.8365 14.5142 14.174C14.7017 14.549 15.0017 14.849 15.4142 14.9615C16.2017 15.1865 17.0267 14.7365 17.2517 13.949C17.4767 13.1615 17.0642 12.3365 16.2767 12.074C15.1142 11.699 14.4392 10.4615 14.8142 9.26148C15.0017 8.69898 15.3767 8.21148 15.9017 7.94898C16.4267 7.64898 17.0267 7.61148 17.5892 7.76148C18.1517 7.94898 18.6392 8.32398 18.9017 8.84898C19.1642 9.37398 19.2392 9.97398 19.0517 10.574L18.3392 10.349C18.4517 9.97398 18.4142 9.56148 18.2267 9.22398C18.0392 8.88648 17.7392 8.62398 17.3642 8.51148C16.9892 8.39898 16.5767 8.43648 16.2392 8.62398C15.9017 8.81148 15.6392 9.11148 15.5267 9.52398C15.3017 10.3115 15.7142 11.1365 16.5017 11.399C17.6642 11.774 18.3392 13.0115 17.9642 14.2115C17.6642 15.1115 16.7642 15.749 15.8267 15.749Z"
        fill="#231C1C" />
    <path
        d="M27.9375 22.9141C27.9375 23.3266 27.6 23.6641 27.1875 23.6641H5.4375C5.025 23.6641 4.6875 23.3266 4.6875 22.9141V6.78906C4.6875 7.91406 5.4375 8.66406 6.5625 8.66406H27.1875C27.6 8.66406 27.9375 9.00156 27.9375 9.41406V22.9141Z"
        fill="#FCC447" />
    <path
        d="M27.1875 24.0391H5.4375C4.8 24.0391 4.3125 23.5516 4.3125 22.9141V6.78906C4.3125 6.56406 4.4625 6.41406 4.6875 6.41406C4.9125 6.41406 5.0625 6.56406 5.0625 6.78906C5.0625 7.68906 5.6625 8.28906 6.5625 8.28906H27.1875C27.825 8.28906 28.3125 8.77656 28.3125 9.41406V22.9141C28.3125 23.5516 27.7875 24.0391 27.1875 24.0391ZM5.0625 8.51406V22.9141C5.0625 23.1391 5.2125 23.2891 5.4375 23.2891H27.1875C27.4125 23.2891 27.5625 23.1391 27.5625 22.9141V9.41406C27.5625 9.18906 27.4125 9.03906 27.1875 9.03906H6.5625C5.9625 9.03906 5.4375 8.85156 5.0625 8.51406Z"
        fill="#231C1C" />
    <path
        d="M27.9375 18.0391H23.55C22.65 18.0391 21.9375 17.3641 21.9375 16.5391V15.7891C21.9375 14.9641 22.65 14.2891 23.55 14.2891H27.975V18.0391H27.9375Z"
        fill="#C89005" />
    <path
        d="M27.9375 18.4141H23.55C22.4625 18.4141 21.5625 17.5891 21.5625 16.5391V15.7891C21.5625 14.7391 22.4625 13.9141 23.55 13.9141H27.975C28.2 13.9141 28.35 14.0641 28.35 14.2891V18.0391C28.3125 18.2641 28.1625 18.4141 27.9375 18.4141ZM23.55 14.6641C22.875 14.6641 22.3125 15.1516 22.3125 15.7891V16.5391C22.3125 17.1766 22.875 17.6641 23.55 17.6641H27.6V14.6641H23.55Z"
        fill="#231C1C" />
    <path d="M6.63672 10.1641H8.43672V10.9141H6.63672V10.1641Z" fill="#231C1C" />
    <path d="M9.63672 10.1641H11.4367V10.9141H9.63672V10.1641Z" fill="#231C1C" />
    <path d="M12.6367 10.1641H14.4367V10.9141H12.6367V10.1641Z" fill="#231C1C" />
    <path d="M15.6367 10.1641H17.4367V10.9141H15.6367V10.1641Z" fill="#231C1C" />
    <path d="M18.6367 10.1641H20.4367V10.9141H18.6367V10.1641Z" fill="#231C1C" />
    <path d="M21.6367 10.1641H23.4367V10.9141H21.6367V10.1641Z" fill="#231C1C" />
    <path d="M24.6367 10.1641H26.4367V10.9141H24.6367V10.1641Z" fill="#231C1C" />
    <path d="M6.63672 21.4141H8.43672V22.1641H6.63672V21.4141Z" fill="#231C1C" />
    <path d="M9.63672 21.4141H11.4367V22.1641H9.63672V21.4141Z" fill="#231C1C" />
    <path d="M12.6367 21.4141H14.4367V22.1641H12.6367V21.4141Z" fill="#231C1C" />
    <path d="M15.6367 21.4141H17.4367V22.1641H15.6367V21.4141Z" fill="#231C1C" />
    <path d="M18.6367 21.4141H20.4367V22.1641H18.6367V21.4141Z" fill="#231C1C" />
    <path d="M21.6367 21.4141H23.4367V22.1641H21.6367V21.4141Z" fill="#231C1C" />
    <path d="M24.6367 21.4141H26.4367V22.1641H24.6367V21.4141Z" fill="#231C1C" />
    <path
        d="M23.0625 16.1641C23.0625 16.363 23.1415 16.5537 23.2822 16.6944C23.4228 16.835 23.6136 16.9141 23.8125 16.9141C24.0114 16.9141 24.2022 16.835 24.3428 16.6944C24.4835 16.5537 24.5625 16.363 24.5625 16.1641C24.5625 15.9651 24.4835 15.7744 24.3428 15.6337C24.2022 15.4931 24.0114 15.4141 23.8125 15.4141C23.6136 15.4141 23.4228 15.4931 23.2822 15.6337C23.1415 15.7744 23.0625 15.9651 23.0625 16.1641Z"
        fill="#231C1C" />
</svg>
